<svg xmlns="http://www.w3.org/2000/svg" xmlns:xlink="http://www.w3.org/1999/xlink" width="1920" zoomAndPan="magnify" viewBox="0 0 1440 809.999993" height="1080" preserveAspectRatio="xMidYMid meet" version="1.0"><defs><clipPath id="c730e0ebd5"><path d="M 414.292969 113 L 681 113 L 681 264 L 414.292969 264 Z M 414.292969 113 " clip-rule="nonzero"/></clipPath><clipPath id="1902c815d1"><path d="M 414.292969 188 L 548 188 L 548 395 L 414.292969 395 Z M 414.292969 188 " clip-rule="nonzero"/></clipPath><clipPath id="f118941bf4"><path d="M 753.390625 344 L 993 344 L 993 714.539062 L 753.390625 714.539062 Z M 753.390625 344 " clip-rule="nonzero"/></clipPath><clipPath id="83f7ea062b"><path d="M 514.539062 344 L 754 344 L 754 714.539062 L 514.539062 714.539062 Z M 514.539062 344 " clip-rule="nonzero"/></clipPath><clipPath id="5ce8598ad0"><path d="M 753.390625 81.261719 L 1049.507812 81.261719 L 1049.507812 344.898438 L 753.390625 344.898438 Z M 753.390625 81.261719 " clip-rule="nonzero"/></clipPath></defs><g clip-path="url(#c730e0ebd5)"><path fill="#f8a14e" d="M 547.199219 113.902344 L 414.292969 188.640625 L 547.199219 263.378906 L 680.101562 188.640625 L 547.199219 113.902344 " fill-opacity="1" fill-rule="nonzero"/></g><path fill="#dc3522" d="M 471.585938 156.425781 L 604.484375 231.15625 L 625.128906 219.554688 L 492.222656 144.816406 L 471.585938 156.425781 " fill-opacity="1" fill-rule="nonzero"/><path fill="#e26425" d="M 680.101562 188.640625 L 547.199219 263.378906 L 547.199219 394.519531 L 680.101562 319.78125 L 680.101562 188.640625 " fill-opacity="1" fill-rule="nonzero"/><g clip-path="url(#1902c815d1)"><path fill="#f2853c" d="M 414.292969 188.640625 L 547.199219 263.378906 L 547.199219 394.519531 L 414.292969 319.78125 L 414.292969 188.640625 " fill-opacity="1" fill-rule="nonzero"/></g><path fill="#dc3522" d="M 501.558594 319.488281 L 538.394531 340.203125 L 538.394531 376.554688 L 501.558594 355.835938 L 501.558594 319.488281 " fill-opacity="1" fill-rule="nonzero"/><path fill="#dc3522" d="M 421.046875 309.96875 L 457.886719 330.683594 L 457.886719 325.734375 L 421.046875 305.015625 L 421.046875 309.96875 " fill-opacity="1" fill-rule="nonzero"/><path fill="#dc3522" d="M 625.128906 219.550781 L 604.484375 231.15625 L 604.484375 296.019531 L 625.128906 284.414062 L 625.128906 219.550781 " fill-opacity="1" fill-rule="nonzero"/><path fill="#f8a14e" d="M 753.464844 210.34375 L 514.671875 344.625 L 753.464844 478.910156 L 992.253906 344.625 L 753.464844 210.34375 " fill-opacity="1" fill-rule="nonzero"/><path fill="#f8a14e" d="M 514.671875 344.625 L 753.464844 478.910156 L 870.179688 413.273438 L 631.386719 278.996094 L 514.671875 344.625 " fill-opacity="1" fill-rule="nonzero"/><path fill="#f2853c" d="M 643.058594 272.429688 L 631.386719 278.996094 L 870.179688 413.273438 L 881.847656 406.714844 L 643.058594 272.429688 " fill-opacity="1" fill-rule="nonzero"/><path fill="#e26425" d="M 871.730469 276.792969 L 860.058594 270.230469 L 749.601562 332.34375 L 761.277344 338.910156 L 871.730469 276.792969 " fill-opacity="1" fill-rule="nonzero"/><g clip-path="url(#f118941bf4)"><path fill="#e26425" d="M 992.253906 344.625 L 753.464844 478.910156 L 753.464844 714.539062 L 992.253906 580.257812 L 992.253906 344.625 " fill-opacity="1" fill-rule="nonzero"/></g><g clip-path="url(#83f7ea062b)"><path fill="#f2853c" d="M 514.671875 344.625 L 753.464844 478.910156 L 753.464844 714.539062 L 514.671875 580.257812 L 514.671875 344.625 " fill-opacity="1" fill-rule="nonzero"/></g><path fill="#dc3522" d="M 671.464844 579.726562 L 737.652344 616.945312 L 737.652344 682.257812 L 671.464844 645.039062 L 671.464844 579.726562 " fill-opacity="1" fill-rule="nonzero"/><path fill="#dc3522" d="M 526.8125 562.621094 L 593 599.839844 L 593 590.949219 L 526.8125 553.730469 L 526.8125 562.621094 " fill-opacity="1" fill-rule="nonzero"/><g clip-path="url(#5ce8598ad0)"><path fill="#f2853c" d="M 992.742188 343.667969 L 1049.507812 215.574219 L 810.667969 81.265625 L 753.464844 210.34375 L 992.253906 344.625 L 992.742188 343.667969 " fill-opacity="1" fill-rule="nonzero"/></g></svg>