<svg xmlns="http://www.w3.org/2000/svg" xmlns:xlink="http://www.w3.org/1999/xlink" width="1920" zoomAndPan="magnify" viewBox="0 0 1440 809.999993" height="1080" preserveAspectRatio="xMidYMid meet" version="1.0"><defs><clipPath id="a14582c40a"><path d="M 289 734 L 1177.308594 734 L 1177.308594 745.25 L 289 745.25 Z M 289 734 " clip-rule="nonzero"/></clipPath><clipPath id="046035586c"><path d="M 527 110.210938 L 539 110.210938 L 539 198 L 527 198 Z M 527 110.210938 " clip-rule="nonzero"/></clipPath><clipPath id="8ba2ee2665"><path d="M 263.058594 374 L 351 374 L 351 386 L 263.058594 386 Z M 263.058594 374 " clip-rule="nonzero"/></clipPath></defs><g clip-path="url(#a14582c40a)"><path fill="#1aa0ae" d="M 1172.089844 745.25 L 294.660156 745.25 C 291.773438 745.25 289.425781 742.910156 289.425781 740.023438 C 289.425781 737.136719 291.773438 734.796875 294.660156 734.796875 L 1172.089844 734.796875 C 1174.976562 734.796875 1177.316406 737.136719 1177.316406 740.023438 C 1177.316406 742.910156 1174.976562 745.25 1172.089844 745.25 " fill-opacity="1" fill-rule="nonzero"/></g><path fill="#ff5520" d="M 890.230469 664.6875 C 889.425781 664.6875 888.773438 664.035156 888.773438 663.230469 L 888.773438 494.378906 C 888.773438 493.578125 889.425781 492.925781 890.230469 492.925781 L 997.507812 492.925781 C 1002.773438 492.925781 1007.578125 495.902344 1009.921875 500.621094 L 1058.050781 597.578125 C 1060.515625 602.542969 1061.796875 608.015625 1061.796875 613.554688 L 1061.796875 663.230469 C 1061.796875 664.035156 1061.144531 664.6875 1060.34375 664.6875 L 890.230469 664.6875 " fill-opacity="1" fill-rule="nonzero"/><path fill="#da4418" d="M 917.769531 655.34375 C 917.769531 660.476562 913.613281 664.632812 908.480469 664.632812 L 872.453125 664.632812 C 867.316406 664.632812 863.160156 660.476562 863.160156 655.34375 L 863.160156 502.210938 C 863.160156 497.082031 867.316406 492.925781 872.453125 492.925781 L 908.480469 492.925781 C 913.613281 492.925781 917.769531 497.082031 917.769531 502.210938 L 917.769531 655.34375 " fill-opacity="1" fill-rule="nonzero"/><path fill="#f0f2f0" d="M 997.414062 515.207031 C 995.683594 511.710938 992.117188 509.503906 988.21875 509.503906 L 946.984375 509.503906 C 941.3125 509.503906 936.714844 514.09375 936.714844 519.769531 L 936.714844 587.054688 C 936.714844 592.730469 941.3125 597.328125 946.984375 597.328125 L 1014.539062 597.328125 C 1019.613281 597.328125 1024.328125 594.703125 1027 590.394531 C 1029.675781 586.082031 1029.925781 580.695312 1027.671875 576.152344 L 997.414062 515.207031 " fill-opacity="1" fill-rule="nonzero"/><path fill="#da4418" d="M 999.433594 519.761719 L 909.957031 519.761719 C 906.03125 519.761719 902.839844 516.578125 902.839844 512.65625 C 902.839844 508.726562 906.03125 505.542969 909.957031 505.542969 L 999.433594 505.542969 C 1003.363281 505.542969 1006.546875 508.726562 1006.546875 512.65625 C 1006.546875 516.578125 1003.363281 519.761719 999.433594 519.761719 " fill-opacity="1" fill-rule="nonzero"/><path fill="#002940" d="M 887.34375 672.195312 C 901.070312 687.726562 899.601562 711.4375 884.070312 725.160156 C 868.539062 738.882812 844.820312 737.414062 831.09375 721.886719 C 817.371094 706.355469 818.835938 682.640625 834.367188 668.921875 C 849.90625 655.199219 873.621094 656.667969 887.34375 672.195312 " fill-opacity="1" fill-rule="nonzero"/><path fill="#002940" d="M 499.753906 672.195312 C 513.476562 687.726562 512.007812 711.4375 496.476562 725.160156 C 480.945312 738.882812 457.226562 737.414062 443.5 721.886719 C 429.777344 706.355469 431.246094 682.640625 446.777344 668.921875 C 462.3125 655.199219 486.027344 656.667969 499.753906 672.195312 " fill-opacity="1" fill-rule="nonzero"/><path fill="#fab900" d="M 889.054688 654.425781 C 889.054688 659.78125 884.710938 664.128906 879.347656 664.128906 L 434.574219 664.128906 L 434.574219 413.664062 L 878.230469 413.664062 C 884.207031 413.664062 889.054688 418.507812 889.054688 424.484375 L 889.054688 654.425781 " fill-opacity="1" fill-rule="nonzero"/><path fill="#efa614" d="M 531.484375 654.421875 C 531.484375 659.78125 527.140625 664.128906 521.777344 664.128906 L 418.523438 664.128906 C 413.160156 664.128906 408.820312 659.78125 408.820312 654.421875 L 408.820312 423.363281 C 408.820312 418.007812 413.160156 413.664062 418.523438 413.664062 L 521.777344 413.664062 C 527.132812 413.664062 531.480469 418.007812 531.480469 423.363281 L 531.484375 654.421875 " fill-opacity="1" fill-rule="nonzero"/><path fill="#043f51" d="M 1066.308594 685.414062 C 1066.308594 691.519531 1061.363281 696.46875 1055.253906 696.46875 L 524.625 696.46875 C 518.515625 696.46875 513.566406 691.519531 513.566406 685.414062 L 513.566406 675.277344 C 513.566406 669.171875 518.515625 664.222656 524.625 664.222656 L 1055.253906 664.222656 C 1061.363281 664.222656 1066.308594 669.171875 1066.308594 675.277344 L 1066.308594 685.414062 " fill-opacity="1" fill-rule="nonzero"/><path fill="#f0f2f0" d="M 1002.050781 691.703125 C 1002.050781 712.425781 985.246094 729.226562 964.519531 729.226562 C 943.792969 729.226562 926.984375 712.425781 926.984375 691.703125 C 926.984375 670.980469 943.792969 654.183594 964.519531 654.183594 C 985.246094 654.183594 1002.050781 670.980469 1002.050781 691.703125 " fill-opacity="1" fill-rule="nonzero"/><path fill="#043f51" d="M 964.519531 660.554688 C 947.335938 660.554688 933.367188 674.527344 933.367188 691.703125 C 933.367188 708.878906 947.335938 722.847656 964.519531 722.847656 C 981.699219 722.847656 995.671875 708.878906 995.671875 691.703125 C 995.671875 674.527344 981.699219 660.554688 964.519531 660.554688 Z M 964.519531 735.601562 C 940.308594 735.601562 920.609375 715.90625 920.609375 691.703125 C 920.609375 667.5 940.308594 647.804688 964.519531 647.804688 C 988.726562 647.804688 1008.425781 667.5 1008.425781 691.703125 C 1008.425781 715.90625 988.726562 735.601562 964.519531 735.601562 " fill-opacity="1" fill-rule="nonzero"/><path fill="#043f51" d="M 964.519531 676.242188 C 973.0625 676.242188 979.980469 683.167969 979.980469 691.703125 C 979.980469 700.242188 973.0625 707.167969 964.519531 707.167969 C 955.976562 707.167969 949.054688 700.242188 949.054688 691.703125 C 949.054688 683.167969 955.976562 676.242188 964.519531 676.242188 " fill-opacity="1" fill-rule="nonzero"/><path fill="#f0f2f0" d="M 635.710938 691.703125 C 635.710938 712.429688 618.910156 729.226562 598.179688 729.226562 C 577.453125 729.226562 560.648438 712.429688 560.648438 691.703125 C 560.648438 670.980469 577.453125 654.183594 598.179688 654.183594 C 618.910156 654.183594 635.710938 670.980469 635.710938 691.703125 " fill-opacity="1" fill-rule="nonzero"/><path fill="#043f51" d="M 598.179688 660.554688 C 581 660.554688 567.027344 674.527344 567.027344 691.703125 C 567.027344 708.882812 581 722.855469 598.179688 722.855469 C 615.355469 722.855469 629.335938 708.882812 629.335938 691.703125 C 629.335938 674.527344 615.355469 660.554688 598.179688 660.554688 Z M 598.179688 735.601562 C 573.96875 735.601562 554.273438 715.910156 554.273438 691.703125 C 554.273438 667.5 573.96875 647.808594 598.179688 647.808594 C 622.390625 647.808594 642.085938 667.5 642.085938 691.703125 C 642.085938 715.910156 622.390625 735.601562 598.179688 735.601562 " fill-opacity="1" fill-rule="nonzero"/><path fill="#043f51" d="M 598.179688 676.242188 C 606.71875 676.242188 613.644531 683.167969 613.644531 691.703125 C 613.644531 700.242188 606.71875 707.167969 598.179688 707.167969 C 589.636719 707.167969 582.714844 700.242188 582.714844 691.703125 C 582.714844 683.167969 589.636719 676.242188 598.179688 676.242188 " fill-opacity="1" fill-rule="nonzero"/><path fill="#002940" d="M 538.425781 685.414062 C 538.425781 691.519531 533.472656 696.46875 527.367188 696.46875 L 418.21875 696.46875 C 412.109375 696.46875 407.160156 691.519531 407.160156 685.414062 L 407.160156 675.277344 C 407.160156 669.171875 412.109375 664.222656 418.21875 664.222656 L 527.367188 664.222656 C 533.472656 664.222656 538.425781 669.171875 538.425781 675.277344 L 538.425781 685.414062 " fill-opacity="1" fill-rule="nonzero"/><path fill="#ff5520" d="M 562.292969 631.558594 C 562.292969 636.914062 557.945312 641.265625 552.589844 641.265625 L 520.792969 641.265625 C 515.4375 641.265625 511.089844 636.914062 511.089844 631.558594 L 511.089844 628.597656 C 511.089844 623.234375 515.4375 618.890625 520.792969 618.890625 L 552.589844 618.890625 C 557.945312 618.890625 562.292969 623.234375 562.292969 628.597656 L 562.292969 631.558594 " fill-opacity="1" fill-rule="nonzero"/><path fill="#fab900" d="M 1061.796875 641.257812 L 1039.609375 641.257812 C 1034.253906 641.257812 1029.902344 636.914062 1029.902344 631.554688 L 1029.902344 628.59375 C 1029.902344 623.230469 1034.25 618.890625 1039.609375 618.890625 L 1061.796875 618.890625 L 1061.796875 641.257812 " fill-opacity="1" fill-rule="nonzero"/><path fill="#da4418" d="M 535.597656 631.554688 C 535.597656 636.914062 531.25 641.257812 525.894531 641.257812 L 520.789062 641.257812 C 515.433594 641.257812 511.085938 636.914062 511.085938 631.554688 L 511.085938 628.59375 C 511.085938 623.230469 515.433594 618.890625 520.789062 618.890625 L 525.894531 618.890625 C 531.25 618.890625 535.597656 623.230469 535.597656 628.59375 L 535.597656 631.554688 " fill-opacity="1" fill-rule="nonzero"/><path fill="#da4418" d="M 433.03125 636.410156 C 433.03125 639.085938 430.859375 641.257812 428.179688 641.257812 L 409.007812 641.257812 L 409.007812 618.890625 L 428.179688 618.890625 C 430.863281 618.890625 433.03125 621.0625 433.03125 623.742188 L 433.03125 636.410156 " fill-opacity="1" fill-rule="nonzero"/><path fill="#ff4800" d="M 889.082031 512.136719 L 642.421875 512.136719 L 626.433594 548.339844 L 889.082031 548.339844 L 889.082031 512.136719 " fill-opacity="1" fill-rule="nonzero"/><path fill="#ff4800" d="M 889.082031 457.335938 L 714.039062 457.335938 L 698.050781 493.546875 L 889.082031 493.546875 L 889.082031 457.335938 " fill-opacity="1" fill-rule="nonzero"/><path fill="#002940" d="M 617.777344 332.875 L 608.976562 324.078125 L 627.773438 305.289062 L 636.574219 314.089844 L 617.777344 332.875 " fill-opacity="1" fill-rule="nonzero"/><path fill="#002940" d="M 614.03125 324.078125 L 617.785156 327.828125 L 631.523438 314.089844 L 627.773438 310.339844 Z M 617.785156 336.445312 C 616.835938 336.445312 615.929688 336.074219 615.253906 335.398438 L 606.453125 326.601562 C 605.058594 325.207031 605.058594 322.945312 606.457031 321.554688 L 625.25 302.761719 C 625.917969 302.089844 626.828125 301.714844 627.773438 301.714844 C 628.722656 301.714844 629.628906 302.089844 630.304688 302.761719 L 639.105469 311.5625 C 640.492188 312.957031 640.492188 315.21875 639.101562 316.613281 L 620.304688 335.398438 C 619.636719 336.074219 618.730469 336.445312 617.785156 336.445312 " fill-opacity="1" fill-rule="nonzero"/><path fill="#043f51" d="M 642.109375 324.175781 C 638.773438 327.515625 633.363281 327.507812 630.03125 324.175781 L 617.679688 311.828125 C 614.34375 308.496094 614.34375 303.089844 617.679688 299.753906 C 619.28125 298.152344 621.449219 297.257812 623.714844 297.257812 C 625.976562 297.257812 628.152344 298.152344 629.753906 299.753906 L 642.109375 312.105469 C 643.707031 313.707031 644.605469 315.875 644.605469 318.140625 C 644.605469 320.40625 643.707031 322.578125 642.109375 324.175781 " fill-opacity="1" fill-rule="nonzero"/><path fill="#043f51" d="M 623.714844 300.835938 C 622.441406 300.835938 621.171875 301.316406 620.203125 302.285156 C 618.269531 304.21875 618.269531 307.367188 620.203125 309.304688 L 632.554688 321.652344 C 634.492188 323.582031 637.644531 323.585938 639.582031 321.652344 C 641.515625 319.714844 641.515625 316.570312 639.582031 314.632812 L 627.230469 302.28125 C 626.261719 301.316406 624.988281 300.835938 623.714844 300.835938 Z M 636.070312 330.253906 C 632.96875 330.253906 629.863281 329.070312 627.5 326.710938 L 615.148438 314.355469 C 610.425781 309.636719 610.425781 301.949219 615.148438 297.226562 C 619.867188 292.503906 627.554688 292.507812 632.285156 297.226562 L 644.640625 309.574219 C 649.359375 314.296875 649.359375 321.984375 644.640625 326.707031 C 642.28125 329.066406 639.167969 330.253906 636.070312 330.253906 " fill-opacity="1" fill-rule="nonzero"/><path fill="#1b586e" d="M 642.46875 318.667969 C 641.34375 318.667969 640.382812 317.808594 640.28125 316.667969 C 640.171875 315.4375 639.621094 314.277344 638.734375 313.390625 L 627.957031 302.621094 C 626.964844 301.625 625.652344 301.066406 624.261719 301.050781 C 622.773438 301.035156 621.617188 301.542969 620.675781 302.492188 C 619.808594 303.351562 618.417969 303.351562 617.566406 302.492188 C 616.707031 301.640625 616.707031 300.246094 617.558594 299.386719 C 619.324219 297.621094 621.675781 296.65625 624.191406 296.65625 L 624.316406 296.65625 C 626.855469 296.6875 629.253906 297.707031 631.0625 299.515625 L 641.839844 310.285156 C 643.445312 311.890625 644.449219 314.019531 644.65625 316.265625 C 644.765625 317.476562 643.878906 318.546875 642.667969 318.652344 L 642.46875 318.667969 " fill-opacity="1" fill-rule="nonzero"/><path fill="#002940" d="M 531.792969 311.078125 C 524.171875 311.078125 517.9375 304.847656 517.9375 297.230469 L 517.9375 276.625 C 517.9375 269.007812 524.171875 262.773438 531.792969 262.773438 L 533.417969 262.773438 C 541.039062 262.773438 547.273438 269.007812 547.273438 276.625 L 547.273438 297.230469 C 547.273438 304.847656 541.039062 311.078125 533.417969 311.078125 L 531.792969 311.078125 " fill-opacity="1" fill-rule="nonzero"/><path fill="#002940" d="M 531.792969 265.324219 C 525.5625 265.324219 520.488281 270.394531 520.488281 276.625 L 520.488281 297.230469 C 520.488281 303.460938 525.5625 308.527344 531.792969 308.527344 L 533.417969 308.527344 C 539.652344 308.527344 544.71875 303.460938 544.71875 297.230469 L 544.71875 276.625 C 544.71875 270.394531 539.652344 265.324219 533.417969 265.324219 Z M 533.417969 313.632812 L 531.792969 313.632812 C 522.75 313.632812 515.386719 306.273438 515.386719 297.230469 L 515.386719 276.625 C 515.386719 267.578125 522.75 260.222656 531.792969 260.222656 L 533.417969 260.222656 C 542.46875 260.222656 549.820312 267.578125 549.820312 276.625 L 549.820312 297.230469 C 549.820312 306.273438 542.46875 313.632812 533.417969 313.632812 " fill-opacity="1" fill-rule="nonzero"/><path fill="#002940" d="M 448.109375 332.875 L 456.910156 324.078125 L 438.113281 305.289062 L 429.3125 314.089844 L 448.109375 332.875 " fill-opacity="1" fill-rule="nonzero"/><path fill="#002940" d="M 434.367188 314.089844 L 448.109375 327.828125 L 451.855469 324.078125 L 438.113281 310.339844 Z M 448.109375 336.445312 C 447.160156 336.445312 446.25 336.074219 445.582031 335.398438 L 426.792969 316.613281 C 425.394531 315.21875 425.394531 312.957031 426.785156 311.5625 L 435.585938 302.761719 C 436.933594 301.421875 439.296875 301.421875 440.636719 302.761719 L 459.429688 321.554688 C 460.828125 322.945312 460.828125 325.207031 459.433594 326.601562 L 450.632812 335.398438 C 449.964844 336.074219 449.050781 336.445312 448.109375 336.445312 " fill-opacity="1" fill-rule="nonzero"/><path fill="#043f51" d="M 423.78125 324.175781 C 427.113281 327.507812 432.523438 327.507812 435.855469 324.175781 L 448.207031 311.832031 C 449.808594 310.226562 450.707031 308.058594 450.707031 305.792969 C 450.707031 303.53125 449.808594 301.359375 448.207031 299.753906 C 446.605469 298.152344 444.433594 297.257812 442.171875 297.257812 C 439.902344 297.257812 437.730469 298.152344 436.128906 299.753906 L 423.78125 312.105469 C 420.445312 315.4375 420.445312 320.84375 423.78125 324.175781 " fill-opacity="1" fill-rule="nonzero"/><path fill="#043f51" d="M 426.304688 321.652344 C 428.1875 323.527344 431.457031 323.527344 433.324219 321.652344 L 445.679688 309.304688 C 446.621094 308.359375 447.132812 307.117188 447.132812 305.792969 C 447.132812 304.46875 446.621094 303.222656 445.679688 302.285156 C 443.742188 300.351562 440.59375 300.339844 438.660156 302.28125 L 426.304688 314.632812 C 424.371094 316.570312 424.371094 319.71875 426.304688 321.652344 Z M 429.816406 330.257812 C 426.578125 330.257812 423.539062 328.996094 421.25 326.710938 C 416.527344 321.988281 416.527344 314.296875 421.25 309.574219 L 433.601562 297.226562 C 438.320312 292.503906 446.011719 292.5 450.734375 297.226562 C 453.023438 299.511719 454.289062 302.554688 454.289062 305.792969 C 454.289062 309.03125 453.023438 312.070312 450.734375 314.355469 L 438.378906 326.707031 C 436.09375 328.996094 433.050781 330.257812 429.816406 330.257812 " fill-opacity="1" fill-rule="nonzero"/><path fill="#1b586e" d="M 426.152344 325.09375 C 425.570312 325.09375 424.992188 324.871094 424.550781 324.429688 C 420.710938 320.582031 420.710938 314.328125 424.550781 310.484375 L 435.53125 299.507812 C 437.953125 297.09375 441.402344 296.101562 444.71875 296.867188 C 445.945312 297.148438 446.710938 298.363281 446.433594 299.585938 C 446.144531 300.808594 444.921875 301.566406 443.714844 301.289062 C 441.882812 300.875 440.042969 301.410156 438.738281 302.714844 L 427.757812 313.691406 C 425.679688 315.765625 425.679688 319.148438 427.757812 321.222656 C 428.648438 322.109375 428.648438 323.546875 427.757812 324.433594 C 427.316406 324.871094 426.734375 325.09375 426.152344 325.09375 " fill-opacity="1" fill-rule="nonzero"/><path fill="#043f51" d="M 655.203125 414.472656 C 655.203125 482.441406 600.089844 537.542969 532.09375 537.542969 C 464.105469 537.542969 408.988281 482.441406 408.988281 414.472656 C 408.988281 346.496094 464.105469 291.390625 532.09375 291.390625 C 600.089844 291.390625 655.203125 346.496094 655.203125 414.472656 " fill-opacity="1" fill-rule="nonzero"/><path fill="#003c2d" d="M 630.859375 414.496094 C 630.859375 469.03125 586.667969 513.210938 532.121094 513.210938 C 477.515625 513.210938 433.332031 469.03125 433.332031 414.496094 C 433.332031 359.90625 477.515625 315.726562 532.121094 315.726562 C 586.667969 315.726562 630.859375 359.90625 630.859375 414.496094 " fill-opacity="1" fill-rule="nonzero"/><path fill="#002940" d="M 532.121094 320.828125 C 480.464844 320.828125 438.433594 362.847656 438.433594 414.492188 C 438.433594 466.117188 480.464844 508.113281 532.121094 508.113281 C 583.753906 508.113281 625.753906 466.117188 625.753906 414.492188 C 625.753906 362.847656 583.753906 320.828125 532.121094 320.828125 M 532.121094 518.308594 C 474.832031 518.308594 428.226562 471.738281 428.226562 414.492188 C 428.226562 357.21875 474.832031 310.628906 532.121094 310.628906 C 589.378906 310.628906 635.964844 357.21875 635.964844 414.492188 C 635.964844 471.738281 589.378906 518.308594 532.121094 518.308594 " fill-opacity="1" fill-rule="nonzero"/><path fill="#ffffff" d="M 630.859375 414.496094 C 630.859375 469.03125 586.667969 513.210938 532.121094 513.210938 C 477.515625 513.210938 433.332031 469.03125 433.332031 414.496094 C 433.332031 359.90625 477.515625 315.726562 532.121094 315.726562 C 586.667969 315.726562 630.859375 359.90625 630.859375 414.496094 " fill-opacity="1" fill-rule="nonzero"/><path fill="#ff5520" d="M 630.859375 414.496094 L 532.121094 414.496094 L 532.121094 315.726562 C 586.667969 315.726562 630.859375 359.90625 630.859375 414.496094 " fill-opacity="1" fill-rule="nonzero"/><path fill="#002940" d="M 532.09375 335.589844 C 530.6875 335.589844 529.546875 334.441406 529.546875 333.039062 L 529.546875 327.035156 C 529.546875 325.625 530.6875 324.484375 532.09375 324.484375 C 533.503906 324.484375 534.644531 325.625 534.644531 327.035156 L 534.644531 333.039062 C 534.644531 334.441406 533.503906 335.589844 532.09375 335.589844 " fill-opacity="1" fill-rule="nonzero"/><path fill="#002940" d="M 532.09375 504.453125 C 530.6875 504.453125 529.546875 503.308594 529.546875 501.902344 L 529.546875 495.898438 C 529.546875 494.488281 530.6875 493.347656 532.09375 493.347656 C 533.503906 493.347656 534.644531 494.488281 534.644531 495.898438 L 534.644531 501.902344 C 534.644531 503.308594 533.503906 504.453125 532.09375 504.453125 " fill-opacity="1" fill-rule="nonzero"/><path fill="#002940" d="M 619.550781 417.019531 L 613.546875 417.019531 C 612.132812 417.019531 610.996094 415.878906 610.996094 414.472656 C 610.996094 413.0625 612.132812 411.917969 613.546875 411.917969 L 619.550781 411.917969 C 620.957031 411.917969 622.097656 413.0625 622.097656 414.472656 C 622.097656 415.878906 620.957031 417.019531 619.550781 417.019531 " fill-opacity="1" fill-rule="nonzero"/><path fill="#002940" d="M 450.644531 417.019531 L 444.640625 417.019531 C 443.230469 417.019531 442.089844 415.878906 442.089844 414.472656 C 442.089844 413.0625 443.230469 411.917969 444.640625 411.917969 L 450.644531 411.917969 C 452.050781 411.917969 453.195312 413.0625 453.195312 414.472656 C 453.195312 415.878906 452.050781 417.019531 450.644531 417.019531 " fill-opacity="1" fill-rule="nonzero"/><path fill="#002940" d="M 456.15625 460.257812 C 455.277344 460.257812 454.417969 459.800781 453.949219 458.984375 C 453.242188 457.761719 453.65625 456.203125 454.875 455.496094 L 460.078125 452.496094 C 461.300781 451.800781 462.855469 452.203125 463.5625 453.429688 C 464.265625 454.648438 463.847656 456.210938 462.628906 456.914062 L 457.433594 459.914062 C 457.027344 460.148438 456.589844 460.257812 456.15625 460.257812 " fill-opacity="1" fill-rule="nonzero"/><path fill="#002940" d="M 602.429688 375.824219 C 601.550781 375.824219 600.699219 375.371094 600.222656 374.546875 C 599.515625 373.328125 599.933594 371.769531 601.15625 371.066406 L 606.355469 368.0625 C 607.578125 367.371094 609.136719 367.773438 609.839844 368.996094 C 610.539062 370.214844 610.128906 371.777344 608.910156 372.484375 L 603.710938 375.484375 C 603.300781 375.71875 602.867188 375.824219 602.429688 375.824219 " fill-opacity="1" fill-rule="nonzero"/><path fill="#002940" d="M 488.460938 492.613281 C 488.027344 492.613281 487.589844 492.5 487.183594 492.265625 C 485.964844 491.566406 485.546875 490.003906 486.253906 488.785156 L 489.257812 483.582031 C 489.964844 482.359375 491.527344 481.957031 492.742188 482.652344 C 493.960938 483.355469 494.378906 484.914062 493.671875 486.132812 L 490.671875 491.335938 C 490.199219 492.152344 489.34375 492.613281 488.460938 492.613281 " fill-opacity="1" fill-rule="nonzero"/><path fill="#002940" d="M 572.917969 346.371094 C 572.480469 346.371094 572.050781 346.261719 571.644531 346.027344 C 570.421875 345.324219 570.003906 343.761719 570.710938 342.542969 L 573.710938 337.34375 C 574.414062 336.121094 575.984375 335.710938 577.199219 336.40625 C 578.417969 337.109375 578.832031 338.671875 578.132812 339.894531 L 575.128906 345.089844 C 574.660156 345.914062 573.796875 346.371094 572.917969 346.371094 " fill-opacity="1" fill-rule="nonzero"/><path fill="#002940" d="M 575.269531 492.613281 C 574.390625 492.613281 573.527344 492.152344 573.0625 491.335938 L 570.058594 486.132812 C 569.355469 484.914062 569.773438 483.355469 570.992188 482.652344 C 572.214844 481.957031 573.78125 482.359375 574.476562 483.582031 L 577.476562 488.785156 C 578.179688 490.003906 577.769531 491.566406 576.550781 492.265625 C 576.140625 492.5 575.707031 492.613281 575.269531 492.613281 " fill-opacity="1" fill-rule="nonzero"/><path fill="#002940" d="M 490.816406 346.371094 C 489.9375 346.371094 489.078125 345.914062 488.609375 345.089844 L 485.605469 339.894531 C 484.902344 338.671875 485.320312 337.109375 486.539062 336.40625 C 487.765625 335.710938 489.324219 336.121094 490.027344 337.34375 L 493.023438 342.542969 C 493.734375 343.761719 493.316406 345.324219 492.097656 346.027344 C 491.6875 346.261719 491.253906 346.371094 490.816406 346.371094 " fill-opacity="1" fill-rule="nonzero"/><path fill="#002940" d="M 607.628906 460.308594 C 607.195312 460.308594 606.761719 460.199219 606.355469 459.964844 L 601.15625 456.964844 C 599.933594 456.261719 599.515625 454.699219 600.222656 453.484375 C 600.941406 452.257812 602.5 451.851562 603.710938 452.546875 L 608.910156 455.546875 C 610.128906 456.25 610.539062 457.8125 609.839844 459.03125 C 609.363281 459.851562 608.507812 460.308594 607.628906 460.308594 " fill-opacity="1" fill-rule="nonzero"/><path fill="#002940" d="M 461.355469 375.875 C 460.917969 375.875 460.480469 375.765625 460.078125 375.535156 L 454.875 372.53125 C 453.65625 371.828125 453.242188 370.265625 453.949219 369.046875 C 454.65625 367.820312 456.21875 367.414062 457.433594 368.113281 L 462.628906 371.113281 C 463.847656 371.820312 464.265625 373.378906 463.5625 374.597656 C 463.089844 375.417969 462.230469 375.875 461.355469 375.875 " fill-opacity="1" fill-rule="nonzero"/><path fill="#002034" d="M 433.363281 417.085938 L 433.359375 417.085938 L 433.363281 417.085938 M 433.355469 416.691406 C 433.355469 416.6875 433.355469 416.6875 433.355469 416.683594 C 433.355469 416.6875 433.355469 416.6875 433.355469 416.691406 M 433.351562 416.59375 C 433.351562 416.589844 433.351562 416.589844 433.351562 416.589844 C 433.351562 416.589844 433.351562 416.589844 433.351562 416.59375 M 433.34375 416.390625 C 433.34375 416.390625 433.34375 416.386719 433.34375 416.378906 C 433.34375 416.386719 433.34375 416.386719 433.34375 416.390625 M 433.34375 416.296875 C 433.34375 416.292969 433.34375 416.285156 433.34375 416.28125 C 433.34375 416.285156 433.34375 416.292969 433.34375 416.296875 M 433.34375 416.195312 C 433.34375 416.191406 433.34375 416.191406 433.34375 416.1875 C 433.34375 416.1875 433.34375 416.195312 433.34375 416.195312 M 433.339844 415.992188 C 433.339844 415.988281 433.339844 415.984375 433.339844 415.984375 C 433.339844 415.984375 433.339844 415.992188 433.339844 415.992188 M 433.339844 415.898438 C 433.339844 415.894531 433.339844 415.890625 433.339844 415.878906 C 433.339844 415.890625 433.339844 415.894531 433.339844 415.898438 M 433.335938 415.804688 C 433.335938 415.800781 433.335938 415.789062 433.335938 415.785156 C 433.335938 415.796875 433.335938 415.796875 433.335938 415.804688 M 433.335938 415.597656 C 433.335938 415.59375 433.335938 415.585938 433.335938 415.582031 C 433.335938 415.585938 433.335938 415.59375 433.335938 415.597656 M 433.335938 415.503906 C 433.335938 415.496094 433.335938 415.488281 433.335938 415.476562 C 433.335938 415.488281 433.335938 415.496094 433.335938 415.503906 M 433.335938 415.410156 C 433.332031 415.402344 433.332031 415.394531 433.332031 415.386719 C 433.332031 415.398438 433.332031 415.398438 433.335938 415.410156 M 433.332031 415.199219 C 433.332031 415.191406 433.332031 415.183594 433.332031 415.175781 C 433.332031 415.183594 433.332031 415.191406 433.332031 415.199219 M 433.332031 415.109375 C 433.332031 415.101562 433.332031 415.089844 433.332031 415.082031 C 433.332031 415.089844 433.332031 415.101562 433.332031 415.109375 M 433.332031 415.011719 C 433.332031 415 433.332031 414.996094 433.332031 414.988281 C 433.332031 414.996094 433.332031 415 433.332031 415.011719 M 433.332031 414.804688 C 433.332031 414.792969 433.332031 414.785156 433.332031 414.773438 C 433.332031 414.785156 433.332031 414.792969 433.332031 414.804688 M 433.332031 414.710938 C 433.332031 414.699219 433.332031 414.6875 433.332031 414.679688 C 433.332031 414.6875 433.332031 414.695312 433.332031 414.710938 M 433.332031 414.613281 C 433.332031 414.605469 433.332031 414.59375 433.332031 414.585938 C 433.332031 414.59375 433.332031 414.605469 433.332031 414.613281 M 532.550781 315.726562 L 532.546875 315.726562 C 532.550781 315.726562 532.546875 315.726562 532.550781 315.726562 M 532.414062 315.726562 C 532.414062 315.726562 532.402344 315.726562 532.398438 315.726562 C 532.402344 315.726562 532.40625 315.726562 532.414062 315.726562 M 532.269531 315.726562 C 532.265625 315.726562 532.257812 315.726562 532.253906 315.726562 C 532.257812 315.726562 532.265625 315.726562 532.269531 315.726562 " fill-opacity="1" fill-rule="nonzero"/><path fill="#b2c7ce" d="M 476.941406 496.402344 C 451.292969 479.125 434.214844 450.128906 433.363281 417.085938 L 433.359375 417.085938 C 433.359375 416.984375 433.359375 416.886719 433.355469 416.789062 C 433.355469 416.757812 433.355469 416.722656 433.355469 416.691406 C 433.355469 416.6875 433.355469 416.6875 433.355469 416.683594 C 433.351562 416.652344 433.351562 416.617188 433.351562 416.59375 C 433.351562 416.589844 433.351562 416.589844 433.351562 416.589844 C 433.351562 416.523438 433.351562 416.453125 433.34375 416.390625 C 433.34375 416.386719 433.34375 416.386719 433.34375 416.378906 C 433.34375 416.351562 433.34375 416.324219 433.34375 416.296875 C 433.34375 416.292969 433.34375 416.285156 433.34375 416.28125 C 433.34375 416.25 433.34375 416.226562 433.34375 416.195312 C 433.34375 416.195312 433.34375 416.1875 433.34375 416.1875 C 433.34375 416.121094 433.339844 416.058594 433.339844 415.992188 C 433.339844 415.992188 433.339844 415.984375 433.339844 415.984375 C 433.339844 415.953125 433.339844 415.929688 433.339844 415.898438 C 433.339844 415.894531 433.339844 415.890625 433.339844 415.878906 C 433.335938 415.855469 433.335938 415.828125 433.335938 415.804688 C 433.335938 415.796875 433.335938 415.796875 433.335938 415.785156 C 433.335938 415.722656 433.335938 415.65625 433.335938 415.597656 C 433.335938 415.59375 433.335938 415.585938 433.335938 415.582031 C 433.335938 415.558594 433.335938 415.527344 433.335938 415.503906 C 433.335938 415.496094 433.335938 415.488281 433.335938 415.476562 C 433.335938 415.453125 433.335938 415.433594 433.335938 415.410156 C 433.332031 415.398438 433.332031 415.398438 433.332031 415.386719 C 433.332031 415.324219 433.332031 415.265625 433.332031 415.199219 C 433.332031 415.191406 433.332031 415.183594 433.332031 415.175781 C 433.332031 415.15625 433.332031 415.128906 433.332031 415.109375 C 433.332031 415.101562 433.332031 415.089844 433.332031 415.082031 C 433.332031 415.054688 433.332031 415.03125 433.332031 415.011719 C 433.332031 415 433.332031 414.996094 433.332031 414.988281 C 433.332031 414.921875 433.332031 414.863281 433.332031 414.804688 C 433.332031 414.792969 433.332031 414.785156 433.332031 414.773438 C 433.332031 414.753906 433.332031 414.734375 433.332031 414.710938 C 433.332031 414.695312 433.332031 414.6875 433.332031 414.679688 C 433.332031 414.65625 433.332031 414.636719 433.332031 414.613281 C 433.332031 414.605469 433.332031 414.59375 433.332031 414.585938 C 433.332031 414.554688 433.332031 414.527344 433.332031 414.496094 C 433.332031 359.90625 477.515625 315.726562 532.121094 315.726562 L 532.121094 322.734375 C 516.601562 324.082031 502.113281 329.007812 489.488281 336.691406 C 489.019531 336.28125 488.429688 336.070312 487.820312 336.070312 C 487.382812 336.070312 486.941406 336.179688 486.539062 336.40625 C 485.5 337.007812 485.046875 338.230469 485.371094 339.332031 C 474.203125 346.90625 464.667969 356.710938 457.410156 368.105469 C 457.019531 367.878906 456.585938 367.773438 456.160156 367.773438 C 455.28125 367.773438 454.421875 368.226562 453.949219 369.046875 C 453.261719 370.238281 453.636719 371.746094 454.78125 372.472656 C 447.832031 384.742188 443.429688 398.644531 442.292969 413.472656 C 442.164062 413.777344 442.089844 414.113281 442.089844 414.472656 C 442.089844 414.699219 442.121094 414.925781 442.179688 415.140625 C 442.0625 417.121094 442 419.117188 442 421.125 C 442 451.316406 455.585938 478.296875 476.941406 496.402344 " fill-opacity="1" fill-rule="nonzero"/><path fill="#b2421a" d="M 595.921875 339.160156 C 580.175781 328.554688 561.214844 322.363281 540.796875 322.363281 C 537.875 322.363281 534.976562 322.484375 532.121094 322.734375 L 532.121094 315.726562 C 532.164062 315.726562 532.210938 315.726562 532.253906 315.726562 C 532.257812 315.726562 532.265625 315.726562 532.269531 315.726562 C 532.3125 315.726562 532.351562 315.726562 532.398438 315.726562 C 532.402344 315.726562 532.414062 315.726562 532.414062 315.726562 C 532.457031 315.726562 532.5 315.726562 532.546875 315.726562 L 532.550781 315.726562 C 556.726562 315.828125 578.8125 324.652344 595.921875 339.160156 " fill-opacity="1" fill-rule="nonzero"/><path fill="#002034" d="M 442.179688 415.140625 C 442.121094 414.925781 442.089844 414.699219 442.089844 414.472656 C 442.089844 414.113281 442.164062 413.777344 442.292969 413.472656 C 442.25 414.023438 442.214844 414.582031 442.179688 415.140625 " fill-opacity="1" fill-rule="nonzero"/><path fill="#002034" d="M 485.371094 339.332031 C 485.046875 338.230469 485.5 337.007812 486.539062 336.40625 C 486.941406 336.179688 487.382812 336.070312 487.820312 336.070312 C 488.429688 336.070312 489.019531 336.28125 489.488281 336.691406 C 488.085938 337.539062 486.71875 338.414062 485.371094 339.332031 " fill-opacity="1" fill-rule="nonzero"/><path fill="#002034" d="M 454.78125 372.472656 C 453.636719 371.746094 453.261719 370.238281 453.949219 369.046875 C 454.421875 368.226562 455.28125 367.773438 456.160156 367.773438 C 456.585938 367.773438 457.019531 367.878906 457.410156 368.105469 C 456.496094 369.53125 455.625 370.996094 454.78125 372.472656 " fill-opacity="1" fill-rule="nonzero"/><path fill="#1b586e" d="M 447.816406 338.253906 C 447.195312 338.253906 446.582031 338.027344 446.089844 337.578125 C 445.050781 336.625 444.984375 335.011719 445.941406 333.976562 C 484.648438 291.890625 551.679688 285.457031 598.503906 319.304688 C 599.652344 320.132812 599.90625 321.726562 599.074219 322.871094 C 598.246094 324.011719 596.65625 324.265625 595.519531 323.441406 C 550.734375 291.066406 486.6875 297.222656 449.695312 337.429688 C 449.195312 337.972656 448.503906 338.253906 447.816406 338.253906 " fill-opacity="1" fill-rule="nonzero"/><path fill="#1b586e" d="M 421.609375 384.882812 C 421.378906 384.882812 421.148438 384.851562 420.917969 384.789062 C 419.558594 384.40625 418.765625 383.003906 419.152344 381.644531 C 422.738281 368.828125 428.503906 356.804688 436.265625 345.898438 C 437.082031 344.742188 438.6875 344.492188 439.824219 345.300781 C 440.976562 346.117188 441.242188 347.710938 440.417969 348.855469 C 433.003906 359.28125 427.496094 370.777344 424.0625 383.015625 C 423.746094 384.148438 422.71875 384.882812 421.609375 384.882812 " fill-opacity="1" fill-rule="nonzero"/><path fill="#002940" d="M 519.335938 432.644531 C 518.03125 432.644531 516.730469 432.148438 515.734375 431.160156 C 513.738281 429.171875 513.734375 425.941406 515.71875 423.945312 L 576.632812 362.722656 C 578.617188 360.71875 581.851562 360.71875 583.855469 362.703125 C 585.851562 364.691406 585.855469 367.921875 583.871094 369.917969 L 522.953125 431.140625 C 521.960938 432.140625 520.644531 432.644531 519.335938 432.644531 " fill-opacity="1" fill-rule="nonzero"/><path fill="#002940" d="M 544.21875 432.644531 C 542.863281 432.644531 541.519531 432.113281 540.519531 431.054688 L 504.472656 393.109375 C 502.535156 391.066406 502.617188 387.839844 504.660156 385.898438 C 506.707031 383.964844 509.933594 384.042969 511.878906 386.082031 L 547.921875 424.027344 C 549.855469 426.070312 549.777344 429.304688 547.726562 431.246094 C 546.746094 432.175781 545.480469 432.644531 544.21875 432.644531 " fill-opacity="1" fill-rule="nonzero"/><path fill="#ff5520" d="M 532.101562 487.714844 C 531.394531 487.714844 530.667969 487.148438 530.660156 486.445312 L 530.660156 414.828125 C 530.660156 414.125 531.066406 413.554688 531.773438 413.546875 C 532.476562 413.546875 533.210938 414.117188 533.214844 414.816406 L 533.214844 486.433594 C 533.214844 487.140625 532.804688 487.710938 532.101562 487.714844 " fill-opacity="1" fill-rule="nonzero"/><path fill="#043f51" d="M 513.167969 251.40625 C 509.246094 251.40625 506.0625 254.589844 506.0625 258.511719 L 506.0625 267.816406 C 506.0625 271.738281 509.246094 274.921875 513.167969 274.921875 L 551.828125 274.921875 C 555.753906 274.921875 558.9375 271.738281 558.9375 267.816406 L 558.9375 258.511719 C 558.9375 254.589844 555.753906 251.40625 551.828125 251.40625 L 513.167969 251.40625 " fill-opacity="1" fill-rule="nonzero"/><path fill="#043f51" d="M 513.167969 257.375 C 512.542969 257.375 512.035156 257.886719 512.035156 258.511719 L 512.035156 267.816406 C 512.035156 268.441406 512.542969 268.945312 513.167969 268.945312 L 551.828125 268.945312 C 552.453125 268.945312 552.960938 268.441406 552.960938 267.816406 L 552.960938 258.511719 C 552.960938 257.886719 552.453125 257.375 551.828125 257.375 Z M 551.828125 280.894531 L 513.167969 280.894531 C 505.953125 280.894531 500.082031 275.027344 500.082031 267.816406 L 500.082031 258.511719 C 500.082031 251.296875 505.953125 245.433594 513.167969 245.433594 L 551.828125 245.433594 C 559.042969 245.433594 564.914062 251.296875 564.914062 258.511719 L 564.914062 267.816406 C 564.914062 275.027344 559.042969 280.894531 551.828125 280.894531 " fill-opacity="1" fill-rule="nonzero"/><path fill="#1b586e" d="M 507.171875 267.003906 C 505.824219 267.003906 504.726562 265.910156 504.726562 264.558594 C 504.726562 256.230469 511.503906 249.457031 519.835938 249.457031 L 545.386719 249.457031 C 546.734375 249.457031 547.824219 250.546875 547.824219 251.894531 C 547.824219 253.25 546.734375 254.339844 545.386719 254.339844 L 519.835938 254.339844 C 514.203125 254.339844 509.617188 258.921875 509.617188 264.558594 C 509.617188 265.910156 508.519531 267.003906 507.171875 267.003906 " fill-opacity="1" fill-rule="nonzero"/><path fill="#ff5520" d="M 537.46875 414.628906 C 537.46875 417.574219 535.078125 419.964844 532.125 419.964844 C 529.179688 419.964844 526.785156 417.574219 526.785156 414.628906 C 526.785156 411.679688 529.179688 409.292969 532.125 409.292969 C 535.078125 409.292969 537.46875 411.679688 537.46875 414.628906 " fill-opacity="1" fill-rule="nonzero"/><g clip-path="url(#046035586c)"><path fill="#5fbdc6" d="M 532.921875 197.445312 C 529.871094 197.445312 527.398438 194.972656 527.398438 191.917969 L 527.398438 115.953125 C 527.398438 112.898438 529.871094 110.421875 532.921875 110.421875 C 535.980469 110.421875 538.453125 112.898438 538.453125 115.953125 L 538.453125 191.917969 C 538.453125 194.972656 535.980469 197.445312 532.921875 197.445312 " fill-opacity="1" fill-rule="nonzero"/></g><path fill="#5fbdc6" d="M 484.132812 203.542969 C 481.699219 203.542969 479.460938 201.914062 478.800781 199.441406 L 468.605469 161.414062 C 467.816406 158.464844 469.570312 155.4375 472.519531 154.644531 C 472.996094 154.519531 473.476562 154.460938 473.949219 154.460938 C 476.390625 154.460938 478.628906 156.085938 479.292969 158.554688 L 489.480469 196.585938 C 490.269531 199.53125 488.519531 202.5625 485.574219 203.355469 C 485.097656 203.484375 484.609375 203.542969 484.132812 203.542969 " fill-opacity="1" fill-rule="nonzero"/><path fill="#5fbdc6" d="M 438.886719 222.6875 C 436.972656 222.6875 435.117188 221.703125 434.09375 219.925781 L 396.03125 154.019531 C 394.507812 151.375 395.414062 147.992188 398.058594 146.464844 C 398.933594 145.964844 399.882812 145.726562 400.820312 145.726562 C 402.730469 145.726562 404.585938 146.71875 405.609375 148.488281 L 443.667969 214.394531 C 445.191406 217.039062 444.289062 220.421875 441.644531 221.949219 C 440.773438 222.449219 439.824219 222.6875 438.886719 222.6875 " fill-opacity="1" fill-rule="nonzero"/><path fill="#5fbdc6" d="M 400.058594 252.683594 C 398.644531 252.683594 397.230469 252.144531 396.148438 251.066406 L 367.902344 222.828125 C 365.75 220.667969 365.75 217.167969 367.902344 215.011719 C 368.984375 213.929688 370.402344 213.390625 371.816406 213.390625 C 373.230469 213.390625 374.644531 213.929688 375.726562 215.011719 L 403.96875 243.246094 C 406.125 245.402344 406.125 248.90625 403.96875 251.066406 C 402.886719 252.144531 401.472656 252.683594 400.058594 252.683594 " fill-opacity="1" fill-rule="nonzero"/><path fill="#5fbdc6" d="M 370.035156 291.476562 C 369.101562 291.476562 368.148438 291.234375 367.277344 290.734375 L 301.296875 252.652344 C 298.652344 251.121094 297.75 247.746094 299.273438 245.101562 C 300.300781 243.324219 302.152344 242.332031 304.0625 242.332031 C 305 242.332031 305.953125 242.570312 306.828125 243.078125 L 372.808594 281.160156 C 375.453125 282.691406 376.355469 286.066406 374.832031 288.710938 C 373.804688 290.484375 371.945312 291.476562 370.035156 291.476562 " fill-opacity="1" fill-rule="nonzero"/><path fill="#5fbdc6" d="M 351.183594 336.773438 C 350.714844 336.773438 350.226562 336.714844 349.75 336.585938 L 311.539062 326.347656 C 308.589844 325.558594 306.839844 322.53125 307.628906 319.578125 C 308.289062 317.109375 310.535156 315.484375 312.972656 315.484375 C 313.441406 315.484375 313.921875 315.542969 314.398438 315.671875 L 352.613281 325.90625 C 355.558594 326.695312 357.3125 329.726562 356.523438 332.675781 C 355.855469 335.140625 353.625 336.773438 351.183594 336.773438 " fill-opacity="1" fill-rule="nonzero"/><g clip-path="url(#8ba2ee2665)"><path fill="#5fbdc6" d="M 344.570312 385.421875 L 268.589844 385.421875 C 265.535156 385.421875 263.058594 382.949219 263.058594 379.894531 C 263.058594 376.84375 265.535156 374.363281 268.589844 374.363281 L 344.570312 374.363281 C 347.628906 374.363281 350.101562 376.84375 350.101562 379.894531 C 350.101562 382.949219 347.628906 385.421875 344.570312 385.421875 " fill-opacity="1" fill-rule="nonzero"/></g><path fill="#5fbdc6" d="M 581.660156 203.542969 C 581.1875 203.542969 580.707031 203.484375 580.226562 203.355469 C 577.277344 202.5625 575.527344 199.53125 576.316406 196.585938 L 586.503906 158.554688 C 587.171875 156.085938 589.402344 154.453125 591.84375 154.453125 C 592.320312 154.453125 592.800781 154.519531 593.277344 154.644531 C 596.226562 155.4375 597.980469 158.464844 597.191406 161.414062 L 586.996094 199.441406 C 586.335938 201.914062 584.097656 203.542969 581.660156 203.542969 " fill-opacity="1" fill-rule="nonzero"/><path fill="#5fbdc6" d="M 626.910156 222.6875 C 625.976562 222.6875 625.027344 222.449219 624.152344 221.949219 C 621.507812 220.421875 620.605469 217.039062 622.128906 214.394531 L 660.1875 148.488281 C 661.210938 146.71875 663.066406 145.726562 664.980469 145.726562 C 665.917969 145.726562 666.871094 145.964844 667.742188 146.464844 C 670.386719 147.992188 671.289062 151.375 669.769531 154.019531 L 631.707031 219.925781 C 630.679688 221.703125 628.820312 222.6875 626.910156 222.6875 " fill-opacity="1" fill-rule="nonzero"/><path fill="#5fbdc6" d="M 665.734375 252.683594 C 664.320312 252.683594 662.90625 252.144531 661.820312 251.066406 C 659.667969 248.90625 659.667969 245.402344 661.820312 243.246094 L 690.066406 215.011719 C 691.152344 213.929688 692.5625 213.390625 693.980469 213.390625 C 695.394531 213.390625 696.808594 213.929688 697.890625 215.011719 C 700.046875 217.167969 700.046875 220.667969 697.890625 222.828125 L 669.644531 251.066406 C 668.5625 252.144531 667.148438 252.683594 665.734375 252.683594 " fill-opacity="1" fill-rule="nonzero"/><path fill="#5fbdc6" d="M 695.757812 291.476562 C 693.84375 291.476562 691.988281 290.484375 690.960938 288.710938 C 689.4375 286.066406 690.339844 282.691406 692.984375 281.160156 L 758.96875 243.078125 C 759.847656 242.578125 760.796875 242.332031 761.734375 242.332031 C 763.644531 242.332031 765.5 243.324219 766.523438 245.101562 C 768.046875 247.746094 767.144531 251.121094 764.5 252.652344 L 698.515625 290.734375 C 697.640625 291.234375 696.691406 291.476562 695.757812 291.476562 " fill-opacity="1" fill-rule="nonzero"/><path fill="#5fbdc6" d="M 714.613281 336.773438 C 712.171875 336.773438 709.941406 335.140625 709.277344 332.675781 C 708.488281 329.726562 710.238281 326.695312 713.191406 325.90625 L 751.398438 315.671875 C 751.878906 315.542969 752.363281 315.484375 752.835938 315.484375 C 755.285156 315.484375 757.507812 317.109375 758.167969 319.578125 C 758.957031 322.53125 757.207031 325.558594 754.261719 326.347656 L 716.046875 336.585938 C 715.570312 336.714844 715.085938 336.773438 714.613281 336.773438 " fill-opacity="1" fill-rule="nonzero"/><path fill="#5fbdc6" d="M 797.210938 385.421875 L 721.226562 385.421875 C 718.171875 385.421875 715.695312 382.949219 715.695312 379.894531 C 715.695312 376.84375 718.171875 374.363281 721.226562 374.363281 L 797.210938 374.363281 C 800.261719 374.363281 802.738281 376.84375 802.738281 379.894531 C 802.738281 382.949219 800.261719 385.421875 797.210938 385.421875 " fill-opacity="1" fill-rule="nonzero"/></svg>