<svg xmlns="http://www.w3.org/2000/svg" xmlns:xlink="http://www.w3.org/1999/xlink" width="1920" zoomAndPan="magnify" viewBox="0 0 1440 809.999993" height="1080" preserveAspectRatio="xMidYMid meet" version="1.0"><defs><clipPath id="f4ae1d011d"><path d="M 933 93 L 1154.230469 93 L 1154.230469 535 L 933 535 Z M 933 93 " clip-rule="nonzero"/></clipPath><clipPath id="0f337ec17f"><path d="M 831 542.082031 L 1036 542.082031 L 1036 746.789062 L 831 746.789062 Z M 831 542.082031 " clip-rule="nonzero"/></clipPath><clipPath id="c6f0c66634"><path d="M 610.9375 631 L 814 631 L 814 746.789062 L 610.9375 746.789062 Z M 610.9375 631 " clip-rule="nonzero"/></clipPath></defs><path fill="#e26425" d="M 818.316406 617.703125 C 830.476562 565.394531 877.242188 526.375 933.214844 526.375 C 933.351562 526.375 933.480469 526.394531 933.617188 526.394531 L 971.125 299.816406 L 637.324219 244.488281 L 582.03125 578.527344 L 804.433594 615.398438 L 818.316406 617.703125 " fill-opacity="1" fill-rule="nonzero"/><path fill="#dc3522" d="M 802.0625 420.191406 L 758.570312 412.984375 L 782.476562 268.546875 L 825.976562 275.753906 L 802.0625 420.191406 " fill-opacity="1" fill-rule="nonzero"/><path fill="#dc3522" d="M 770.679688 609.804688 L 727.1875 602.597656 L 751.09375 458.160156 L 794.585938 465.367188 L 770.679688 609.804688 " fill-opacity="1" fill-rule="nonzero"/><path fill="#f2853c" d="M 405.058594 549.199219 L 582.03125 578.527344 L 637.324219 244.488281 L 460.355469 215.148438 L 405.058594 549.199219 " fill-opacity="1" fill-rule="nonzero"/><path fill="#dc3522" d="M 546.648438 480.425781 L 582.644531 486.394531 L 571.164062 555.726562 L 535.175781 549.757812 L 546.648438 480.425781 " fill-opacity="1" fill-rule="nonzero"/><path fill="#dc3522" d="M 425.367188 514.929688 L 465.863281 521.640625 L 463.183594 537.828125 L 422.691406 531.117188 L 425.367188 514.929688 " fill-opacity="1" fill-rule="nonzero"/><path fill="#b5db3b" d="M 554.304688 589.625 C 555.699219 581.191406 562.023438 575.214844 568.429688 576.277344 L 395.011719 547.527344 C 388.648438 546.476562 382.359375 552.457031 380.957031 560.890625 C 379.5625 569.324219 383.589844 577.015625 389.957031 578.070312 L 563.378906 606.824219 C 556.96875 605.757812 552.902344 598.058594 554.304688 589.625 " fill-opacity="1" fill-rule="nonzero"/><path fill="#b5db3b" d="M 971.125 299.816406 L 1000.546875 122.050781 L 1003.074219 106.78125 C 1004.46875 98.347656 1010.800781 92.367188 1017.207031 93.429688 L 843.710938 64.671875 C 837.300781 63.609375 830.980469 69.582031 829.585938 78.015625 L 797.628906 271.058594 L 840.40625 278.148438 L 971.125 299.816406 " fill-opacity="1" fill-rule="nonzero"/><path fill="#354459" d="M 1098.03125 204.328125 L 1099.007812 198.417969 L 1100.570312 188.980469 L 1106.722656 151.777344 C 1107.160156 148.707031 1107.414062 139.765625 1095.769531 137.832031 L 1056.234375 131.277344 C 1044.585938 129.347656 1041.945312 137.898438 1041.367188 140.945312 L 1029.125 214.894531 L 1115.875 229.277344 C 1104.058594 227.320312 1096.074219 216.148438 1098.03125 204.328125 " fill-opacity="1" fill-rule="nonzero"/><path fill="#7a9928" d="M 818.316406 617.703125 L 804.433594 615.398438 L 582.03125 578.527344 L 568.429688 576.277344 C 562.023438 575.214844 555.699219 581.191406 554.304688 589.625 C 552.902344 598.058594 556.96875 605.757812 563.371094 606.824219 L 815.34375 648.585938 C 815.300781 647.234375 815.144531 645.90625 815.144531 644.542969 C 815.144531 635.292969 816.308594 626.335938 818.316406 617.703125 " fill-opacity="1" fill-rule="nonzero"/><g clip-path="url(#f4ae1d011d)"><path fill="#7a9928" d="M 1144.902344 114.601562 L 1129.371094 112.023438 L 1032.742188 96.003906 L 1017.207031 93.429688 C 1010.800781 92.367188 1004.46875 98.347656 1003.074219 106.78125 L 971.125 299.816406 L 933.617188 526.394531 C 948.660156 526.449219 962.992188 529.394531 976.210938 534.574219 L 1041.367188 140.945312 C 1041.945312 137.898438 1044.585938 129.347656 1056.234375 131.277344 L 1095.769531 137.832031 C 1107.414062 139.765625 1107.160156 148.707031 1106.722656 151.777344 L 1100.570312 188.980469 L 1099.007812 198.417969 L 1098.03125 204.328125 C 1096.074219 216.148438 1104.058594 227.320312 1115.875 229.277344 C 1127.683594 231.234375 1138.84375 223.238281 1140.796875 211.417969 L 1141.773438 205.507812 L 1143.339844 196.070312 L 1153.984375 131.792969 C 1155.378906 123.359375 1151.308594 115.664062 1144.902344 114.601562 " fill-opacity="1" fill-rule="nonzero"/></g><g clip-path="url(#0f337ec17f)"><path fill="#354459" d="M 1035.410156 644.542969 C 1035.410156 701.019531 989.65625 746.804688 933.214844 746.804688 C 876.773438 746.804688 831.019531 701.019531 831.019531 644.542969 C 831.019531 588.058594 876.773438 542.269531 933.214844 542.269531 C 989.65625 542.269531 1035.410156 588.058594 1035.410156 644.542969 " fill-opacity="1" fill-rule="nonzero"/></g><path fill="#dc3522" d="M 993.304688 644.542969 C 993.304688 677.746094 966.402344 704.671875 933.214844 704.671875 C 900.035156 704.671875 873.128906 677.746094 873.128906 644.542969 C 873.128906 611.328125 900.035156 584.40625 933.214844 584.40625 C 966.402344 584.40625 993.304688 611.328125 993.304688 644.542969 " fill-opacity="1" fill-rule="nonzero"/><g clip-path="url(#c6f0c66634)"><path fill="#354459" d="M 713.136719 704.671875 C 679.949219 704.671875 653.046875 677.746094 653.046875 644.542969 C 653.046875 642.597656 653.15625 640.679688 653.339844 638.78125 L 611.800781 631.894531 C 611.292969 636.050781 610.941406 640.25 610.941406 644.542969 C 610.941406 701.019531 656.695312 746.804688 713.136719 746.804688 C 762.46875 746.804688 803.632812 711.820312 813.214844 665.28125 L 771.558594 658.375 C 765.304688 684.902344 741.554688 704.671875 713.136719 704.671875 " fill-opacity="1" fill-rule="nonzero"/></g><path fill="#dc3522" d="M 713.136719 704.671875 C 741.554688 704.671875 765.304688 684.902344 771.558594 658.375 L 653.339844 638.78125 C 653.15625 640.679688 653.046875 642.597656 653.046875 644.542969 C 653.046875 677.746094 679.949219 704.671875 713.136719 704.671875 " fill-opacity="1" fill-rule="nonzero"/></svg>