<svg xmlns="http://www.w3.org/2000/svg" xmlns:xlink="http://www.w3.org/1999/xlink" width="1920" zoomAndPan="magnify" viewBox="0 0 1440 809.999993" height="1080" preserveAspectRatio="xMidYMid meet" version="1.0"><defs><clipPath id="095ee3e10b"><path d="M 785 145 L 949.347656 145 L 949.347656 374 L 785 374 Z M 785 145 " clip-rule="nonzero"/></clipPath><clipPath id="825400d023"><path d="M 501 654 L 870.699219 654 L 870.699219 788.929688 L 501 788.929688 Z M 501 654 " clip-rule="nonzero"/></clipPath></defs><path fill="#3b435f" d="M 931.644531 608.867188 C 932.167969 611.660156 937.265625 624.203125 932.578125 625.484375 C 931.265625 625.863281 929.898438 626.152344 928.558594 626.386719 C 928.644531 629.644531 928.761719 632.902344 928.878906 636.132812 C 929.316406 646.8125 929.78125 657.492188 930.21875 668.171875 C 930.277344 669.65625 931.675781 676.929688 930.246094 678.179688 C 928.90625 679.375 917.929688 677.976562 915.832031 678.265625 C 903.3125 679.925781 891.140625 684.785156 879.261719 688.917969 C 869.828125 692.207031 843.066406 705.097656 833.253906 698.257812 C 828.332031 694.824219 840.648438 686.96875 842.601562 685.484375 C 858.324219 673.464844 872.914062 659.789062 884.386719 643.554688 C 887.761719 638.808594 890.382812 633.835938 892.304688 628.539062 C 889.683594 628.945312 886.976562 629.46875 884.53125 630.429688 C 883.453125 630.867188 882.464844 633.195312 881.648438 632.378906 C 880.570312 631.304688 880.425781 625.25 880.132812 623.796875 C 878.386719 615.066406 876.523438 606.335938 875.15625 597.550781 C 869.1875 559.429688 868.078125 520.496094 866.683594 482.03125 C 866.042969 464.773438 865.195312 447.546875 864.441406 430.320312 C 864.175781 424.503906 863.945312 418.683594 863.535156 412.863281 C 863.535156 412.746094 863.1875 407.625 862.839844 407.742188 C 861.789062 408.0625 861.441406 416.472656 861.324219 417.34375 C 859.839844 429.507812 858.5 441.640625 857.597656 453.863281 C 854.800781 491.574219 853.664062 529.546875 852.820312 567.34375 C 852.617188 577.007812 852.589844 586.667969 852.269531 596.328125 C 852.152344 600.226562 852.589844 606.394531 849.558594 609.480469 C 843.941406 615.152344 826.121094 609.160156 819.363281 607.964844 C 818.722656 607.878906 810.976562 607.382812 810.65625 606.746094 C 807.628906 600.722656 808.007812 590.390625 807.308594 583.929688 C 805.210938 564.582031 804.570312 545.144531 804.457031 525.707031 C 804.308594 501.351562 804.570312 476.964844 804.949219 452.613281 C 805.359375 425.375 806 398.109375 807.046875 370.875 C 807.367188 363.019531 810.453125 350.273438 809.929688 340.992188 L 808.765625 340.902344 C 808.765625 340.902344 804.660156 252.183594 801.953125 243.511719 C 799.242188 234.839844 768.492188 238.390625 762.582031 234.085938 C 758.15625 230.855469 766.628906 217.730469 766.628906 217.730469 C 800.464844 140.882812 833.75 158.285156 857.1875 147.835938 C 872.710938 140.941406 877.308594 145.566406 907.242188 155.054688 C 929.636719 162.183594 944.429688 190.582031 945.214844 196.78125 C 946.554688 207.488281 930.277344 285.703125 921.714844 325.773438 C 935.253906 398.691406 922.820312 474.289062 925.734375 547.9375 C 926.519531 568.304688 927.890625 588.820312 931.644531 608.867188 " fill-opacity="1" fill-rule="evenodd"/><path fill="#bd651d" d="M 904.710938 94.324219 C 902.292969 101.890625 896.617188 107.273438 890.210938 111.640625 C 890.644531 129.011719 895.742188 162.9375 895.742188 162.9375 C 895.742188 162.9375 864.496094 177.371094 854.539062 159.824219 C 853.402344 157.789062 859.925781 140.359375 859.257812 134.597656 C 859.109375 134.625 858.9375 134.65625 858.789062 134.683594 C 839.222656 138.234375 828.796875 112.046875 828.796875 105.238281 C 828.828125 103.609375 831.476562 90.804688 828.855469 87.808594 C 828.507812 87.402344 827.605469 81.144531 827.632812 81.230469 L 874.660156 67.933594 C 890.035156 68.777344 892.800781 77.449219 892.480469 89.234375 C 897.722656 80.910156 909.105469 80.621094 904.710938 94.324219 " fill-opacity="1" fill-rule="evenodd"/><path fill="#d13123" d="M 680.613281 407.917969 L 683.089844 328.070312 C 699.949219 327.519531 833.28125 372.386719 870.292969 380.855469 C 871.574219 381.144531 868.195312 608.664062 864.789062 635.550781 C 861.964844 657.984375 854.859375 619.722656 854.277344 618.847656 C 851.421875 614.28125 855.355469 409.488281 854.394531 394.996094 C 848.015625 393.046875 696.921875 341.164062 696.921875 341.164062 L 695.960938 406.492188 L 680.613281 407.917969 " fill-opacity="1" fill-rule="evenodd"/><g clip-path="url(#095ee3e10b)"><path fill="#fce8bc" d="M 818.664062 156.363281 C 818.695312 156.363281 818.753906 156.363281 818.8125 156.390625 L 818.664062 156.507812 C 818.578125 156.390625 818.578125 156.363281 818.664062 156.363281 Z M 884.996094 257.390625 C 884.878906 258.730469 922.445312 272.8125 931.441406 261.582031 C 940.410156 250.351562 944.777344 209.671875 938.867188 190.03125 C 932.167969 167.710938 910.125 173.296875 897.109375 208.476562 C 892.277344 221.570312 885.8125 248.429688 884.996094 257.390625 Z M 818.8125 156.390625 L 822.597656 153.511719 C 831.1875 151.007812 840.15625 149.554688 848.859375 147.429688 C 850.316406 147.082031 855.761719 144.78125 857.277344 145.917969 C 857.828125 146.324219 856.898438 149.117188 856.808594 149.640625 C 856.082031 153.859375 824.257812 354.289062 824.257812 354.289062 C 824.257812 354.289062 786.429688 347.277344 785.179688 347.042969 C 783.839844 346.78125 797.699219 253.550781 801.71875 240.632812 C 805.210938 229.488281 822.070312 184.792969 822.769531 173.125 C 823.003906 169.167969 823.324219 164.773438 822.128906 160.929688 C 821.722656 159.652344 821.226562 158.285156 820.324219 157.292969 C 820.0625 156.972656 819.21875 156.507812 818.8125 156.390625 Z M 844.492188 358.652344 C 841.757812 362.144531 883.308594 203.878906 887.589844 194.335938 C 891.78125 185.054688 893.761719 147.429688 893.761719 147.429688 C 897.691406 146.964844 929.695312 160.640625 940.324219 175.886719 C 956.570312 199.136719 947.71875 252.996094 937.964844 286.519531 C 929.722656 314.832031 936.683594 373.988281 936.683594 373.988281 C 936.683594 373.988281 844.609375 358.507812 844.492188 358.652344 " fill-opacity="1" fill-rule="evenodd"/></g><path fill="#d13123" d="M 930.917969 263.242188 C 930.625 263.125 930.304688 263.007812 929.984375 262.890625 C 919.09375 271.535156 884.878906 258.671875 884.996094 257.390625 C 885.144531 255.851562 885.492188 253.636719 885.929688 251.164062 C 881.269531 250.4375 876.609375 249.769531 871.980469 249.15625 C 867.730469 264.871094 863.214844 282.066406 859.050781 298.101562 C 867.089844 298.421875 875.125 298.796875 883.132812 299.410156 C 893.09375 300.167969 903.835938 301.417969 913.269531 304.707031 C 919.96875 307.0625 926.375 310.292969 932.488281 313.8125 C 932.636719 313.902344 933.363281 314.367188 934.179688 314.917969 C 934.613281 304.386719 935.691406 294.289062 937.964844 286.519531 C 939.625 280.84375 941.226562 274.558594 942.710938 267.953125 C 938.953125 266.324219 935.109375 265.101562 930.917969 263.242188 Z M 815.027344 242.320312 C 823.90625 242.8125 832.757812 243.949219 841.582031 245.171875 C 838.757812 262.921875 835.902344 280.902344 833.339844 297.050781 C 826.121094 296.703125 818.867188 296.324219 811.648438 295.714844 C 806 295.21875 800.378906 294.550781 794.730469 293.910156 C 794.554688 293.910156 793.332031 293.882812 792.167969 293.824219 C 795.515625 272.144531 799.214844 250.320312 801.253906 242.320312 C 802.15625 242.117188 804.921875 242 805.125 242 C 808.414062 242 811.734375 242.144531 815.027344 242.320312 " fill-opacity="1" fill-rule="evenodd"/><path fill="#bd651d" d="M 899.265625 251.746094 C 892.800781 252.386719 887.878906 254.890625 887.878906 254.890625 C 887.878906 254.890625 878.765625 289.429688 863.1875 307.964844 C 847.144531 327.054688 839.863281 348.292969 837.386719 350.039062 C 831.097656 354.550781 809.929688 352.484375 811.765625 361.503906 C 813.015625 367.675781 817.820312 362.609375 819.625 371.484375 C 821.023438 378.382812 807.570312 377.421875 807.773438 384.085938 C 808.035156 392.640625 835.4375 397.46875 841.667969 395.375 C 852.878906 391.652344 854.683594 371.921875 858.675781 362.757812 C 860.332031 358.914062 878.066406 340.261719 891.230469 315.792969 C 895.042969 308.664062 913.855469 283.753906 921.453125 263.675781 C 925.703125 252.386719 910.5625 250.613281 899.265625 251.746094 Z M 799.125 237.34375 C 790.566406 251.804688 784.1875 261.320312 772.335938 273.542969 C 762.613281 283.550781 761.039062 300.339844 741.414062 320.5625 C 736.203125 325.890625 750.324219 339.332031 749.917969 340.875 C 748.109375 347.917969 747.414062 342.476562 741.5 346.285156 C 736.902344 349.253906 739.492188 355.714844 735.355469 359.089844 C 728.949219 364.296875 717.1875 362.085938 713.402344 356.585938 C 706.996094 347.277344 703.589844 344.046875 709.5 335.433594 C 715.441406 326.761719 718.148438 320.824219 724.84375 313.054688 C 728.980469 308.253906 769.542969 228.875 769.542969 228.875 C 782.472656 226.808594 792.195312 229.894531 799.125 237.34375 " fill-opacity="1" fill-rule="evenodd"/><g clip-path="url(#825400d023)"><path fill="#d13123" d="M 505.378906 676.261719 C 505.234375 674.71875 504.449219 679.199219 504.039062 680.683594 C 503.078125 684.175781 502.320312 687.722656 501.886719 691.332031 C 500.398438 703.203125 500.75 717.898438 513.152344 723.835938 C 536.363281 734.980469 554.386719 709.433594 552.871094 688.566406 Z M 863.480469 654.175781 L 826.003906 670.585938 C 827.867188 669.421875 825.273438 674.949219 825.160156 677.160156 C 824.898438 681.496094 824.867188 685.863281 825.011719 690.226562 C 825.449219 702.128906 830.019531 720.546875 845.65625 719.90625 C 868.921875 718.917969 877.195312 668.8125 863.480469 654.175781 Z M 710.167969 730.441406 C 713.460938 738.269531 713.867188 746.269531 712.730469 754.648438 C 711.828125 761.167969 710.402344 767.773438 707.316406 773.621094 C 693.921875 798.996094 666.726562 790.441406 660.988281 765.359375 C 660.40625 762.769531 656.445312 744.960938 660.640625 743.59375 L 710.167969 730.441406 " fill-opacity="1" fill-rule="evenodd"/></g><path fill="#fce8bc" d="M 518.890625 718.21875 C 517.492188 715.28125 516.765625 711.875 516.503906 708.414062 C 516.386719 707.046875 516.355469 705.648438 516.355469 704.308594 C 516.386719 702.1875 516.503906 700.089844 516.765625 698.140625 C 516.910156 696.746094 517.113281 695.347656 517.375 693.980469 C 517.636719 692.582031 517.929688 691.1875 518.277344 689.820312 C 518.367188 689.414062 518.773438 688.976562 519.09375 688.539062 C 519.414062 688.132812 519.675781 687.722656 519.792969 687.347656 C 519.878906 686.9375 519.851562 686.558594 519.53125 686.210938 C 519.355469 686.007812 519.035156 686.007812 518.859375 686.183594 C 518.65625 686.328125 518.628906 686.648438 518.804688 686.851562 C 518.917969 686.996094 518.804688 687.140625 518.714844 687.316406 C 518.484375 687.667969 518.105469 688.042969 517.785156 688.453125 C 517.492188 688.800781 517.257812 689.179688 517.144531 689.527344 C 516.734375 690.894531 516.386719 692.292969 516.035156 693.691406 C 515.714844 695.085938 515.453125 696.511719 515.222656 697.9375 C 514.929688 699.945312 514.699219 702.097656 514.640625 704.28125 C 514.609375 705.707031 514.667969 707.132812 514.785156 708.53125 C 515.105469 712.226562 515.949219 715.804688 517.550781 718.886719 C 519.707031 723.109375 523.199219 726.335938 528.558594 727.558594 C 528.847656 727.648438 529.140625 727.472656 529.199219 727.179688 C 529.285156 726.890625 529.109375 726.597656 528.820312 726.542969 C 523.898438 725.261719 520.78125 722.148438 518.890625 718.21875 Z M 854.566406 716.589844 C 848.539062 715.601562 844.84375 711.03125 842.601562 705.152344 C 841.085938 701.195312 840.214844 696.628906 839.777344 692.148438 C 839.542969 689.878906 839.367188 687.636719 839.308594 685.453125 C 839.253906 683.070312 839.253906 680.800781 839.339844 678.761719 C 839.425781 677.308594 839.515625 675.882812 839.6875 674.457031 C 839.835938 673.03125 840.039062 671.605469 840.300781 670.179688 C 840.445312 669.539062 841 668.957031 841.261719 668.34375 C 841.4375 667.9375 841.492188 667.53125 841.347656 667.09375 C 841.289062 666.832031 841 666.6875 840.765625 666.773438 C 840.503906 666.832031 840.359375 667.121094 840.445312 667.355469 C 840.476562 667.558594 840.417969 667.761719 840.328125 667.9375 C 840.039062 668.605469 839.425781 669.246094 839.253906 669.945312 C 838.902344 671.398438 838.613281 672.828125 838.40625 674.28125 C 838.175781 675.734375 838.027344 677.21875 837.914062 678.675781 C 837.765625 680.742188 837.652344 683.039062 837.679688 685.484375 C 837.707031 687.695312 837.796875 690.023438 838.027344 692.320312 C 838.523438 696.949219 839.515625 701.664062 841.144531 705.707031 C 843.707031 711.992188 847.898438 716.765625 854.421875 717.609375 C 854.714844 717.667969 854.976562 717.460938 855.035156 717.171875 C 855.0625 716.878906 854.859375 716.617188 854.566406 716.589844 Z M 700.675781 781.945312 C 700.910156 781.796875 701.257812 781.886719 701.375 782.148438 C 701.550781 782.410156 701.433594 782.730469 701.203125 782.875 C 695.84375 786.046875 691.300781 785.378906 687.75 782.4375 C 684.835938 780.109375 682.566406 776.300781 681.023438 771.816406 C 680.121094 769.257812 679.480469 766.492188 679.042969 763.699219 C 678.691406 761.140625 678.460938 758.578125 678.34375 755.988281 C 678.226562 753.429688 678.226562 750.839844 678.34375 748.277344 C 678.371094 747.433594 678.429688 746.589844 678.488281 745.746094 C 678.546875 744.902344 678.632812 744.085938 678.722656 743.242188 C 678.78125 742.894531 678.953125 742.371094 679.128906 741.875 C 679.1875 741.757812 679.246094 741.613281 679.304688 741.496094 L 679.273438 741.441406 C 679.101562 741.234375 679.160156 740.945312 679.390625 740.769531 C 679.652344 740.566406 679.855469 740.625 679.972656 740.683594 C 680.148438 740.742188 680.292969 740.886719 680.324219 741.179688 C 680.324219 741.527344 679.855469 742.75 679.800781 743.332031 C 679.742188 744.175781 679.710938 744.988281 679.652344 745.832031 C 679.625 746.648438 679.625 747.464844 679.625 748.308594 C 679.59375 750.839844 679.710938 753.371094 679.886719 755.902344 C 680.0625 758.433594 680.351562 760.964844 680.730469 763.4375 C 681.136719 766.144531 681.777344 768.820312 682.59375 771.265625 C 684.019531 775.457031 686.03125 779.09375 688.652344 781.363281 C 691.796875 784.011719 695.8125 784.652344 700.675781 781.945312 " fill-opacity="1" fill-rule="evenodd"/><path fill="#3b435f" d="M 548.707031 613.234375 L 826.03125 594.347656 L 872.824219 620.128906 L 875.535156 651.03125 L 671.734375 750.984375 L 493.03125 675.53125 L 490.527344 635.027344 L 548.707031 613.234375 " fill-opacity="1" fill-rule="evenodd"/><path fill="#f5ba53" d="M 580.417969 467.363281 L 576.195312 465.734375 L 576.488281 408.933594 L 686.148438 385.65625 L 820.820312 426.132812 L 819.539062 477.054688 L 836.398438 480.75 L 831.914062 636.394531 L 684.109375 700.324219 L 540.992188 628.480469 L 549.4375 470.941406 L 580.417969 467.363281 " fill-opacity="1" fill-rule="evenodd"/><path fill="#f5ba53" d="M 888.929688 74.277344 C 890.179688 72.792969 891.492188 71.484375 893.238281 70.550781 C 894.140625 70.085938 895.128906 69.707031 896.148438 69.503906 C 905.378906 67.613281 905.292969 80.214844 905.292969 86.03125 C 905.292969 87.429688 905.351562 88.855469 905.261719 90.253906 C 905.234375 90.425781 904.886719 89.496094 904.828125 89.351562 C 904.507812 88.621094 904.097656 87.925781 903.574219 87.3125 C 902.265625 85.769531 899.992188 85.246094 898.070312 85.65625 C 895.683594 86.207031 893.820312 88.128906 892.363281 89.960938 L 893.207031 88.972656 C 893.0625 89.234375 892.917969 89.496094 892.773438 89.757812 C 892.480469 90.253906 892.1875 90.746094 891.898438 91.210938 C 891.664062 91.621094 891.402344 92.027344 891.140625 92.40625 C 891.054688 92.578125 890.9375 92.726562 890.851562 92.871094 L 890.675781 93.132812 L 890.675781 93.160156 C 890.617188 93.21875 890.589844 93.25 890.589844 93.21875 L 895.769531 84.460938 C 893.761719 87.691406 892.21875 91.183594 889.890625 94.179688 C 888.8125 95.546875 887.675781 96.855469 886.597656 98.195312 C 886.511719 98.28125 885.695312 99.5625 885.550781 99.503906 C 885.257812 99.417969 885.289062 97.992188 885.257812 97.757812 C 885.113281 95.898438 884.851562 94.179688 884.125 92.433594 C 882.054688 87.429688 878.386719 82.949219 875.007812 78.789062 C 874.136719 77.710938 873.234375 76.664062 872.300781 75.617188 C 872.214844 75.5 871.574219 74.742188 871.542969 74.714844 L 875.679688 71.484375 C 881.035156 70.960938 887.066406 71.019531 892.363281 71.921875 L 888.929688 74.277344 " fill-opacity="1" fill-rule="evenodd"/><path fill="#3b435f" d="M 897.632812 93.394531 C 896.847656 93.917969 896.089844 94.472656 895.390625 95.082031 C 894.898438 95.488281 894.460938 95.898438 894.023438 96.332031 C 893.675781 96.710938 893.296875 97.089844 892.945312 97.46875 C 892.597656 97.875 892.246094 98.3125 891.957031 98.75 C 891.839844 98.921875 891.722656 99.15625 891.664062 99.445312 C 891.605469 99.679688 891.578125 99.882812 891.550781 100.058594 L 891.519531 100.085938 C 891.285156 100.203125 891.230469 100.496094 891.34375 100.726562 C 891.433594 100.960938 891.605469 101.019531 891.722656 101.046875 C 891.867188 101.105469 892.015625 101.046875 892.1875 100.960938 C 892.277344 100.902344 892.394531 100.726562 892.507812 100.464844 C 892.65625 100.175781 892.773438 99.707031 892.945312 99.535156 C 893.207031 99.242188 893.5 98.980469 893.789062 98.71875 C 894.226562 98.3125 894.664062 97.933594 895.128906 97.585938 C 895.101562 97.671875 895.070312 97.757812 895.042969 97.875 C 894.957031 98.167969 894.898438 98.457031 894.839844 98.777344 C 894.808594 99.15625 894.78125 99.535156 894.75 99.882812 C 894.695312 100.464844 894.664062 101.019531 894.636719 101.570312 C 894.605469 101.863281 894.78125 102.152344 895.070312 102.210938 C 895.363281 102.242188 895.625 102.066406 895.683594 101.773438 C 895.859375 101.222656 896.03125 100.699219 896.207031 100.175781 C 896.324219 99.824219 896.441406 99.476562 896.527344 99.097656 C 896.585938 98.808594 896.644531 98.515625 896.703125 98.195312 C 896.761719 97.90625 896.761719 97.585938 896.789062 97.265625 C 896.789062 97.175781 896.878906 96.507812 896.847656 96.101562 C 897.632812 95.429688 898.421875 94.734375 899.265625 94.09375 C 900.226562 93.367188 901.214844 92.695312 902.234375 92.230469 C 902.496094 92.113281 902.644531 91.824219 902.527344 91.53125 C 902.4375 91.269531 902.117188 91.152344 901.855469 91.242188 C 900.402344 91.734375 898.972656 92.492188 897.632812 93.394531 Z M 873.261719 123.335938 C 871.601562 125.140625 869.855469 126.742188 867.992188 128.226562 C 867.058594 128.953125 866.128906 129.652344 865.136719 130.347656 C 864.175781 131.019531 863.214844 131.6875 862.167969 132.300781 C 861.585938 132.648438 860.480469 133.578125 859.460938 134.160156 C 859.082031 134.421875 858.703125 134.625 858.410156 134.625 C 858.148438 134.625 857.917969 134.832031 857.917969 135.09375 C 857.917969 135.355469 858.121094 135.585938 858.382812 135.585938 C 858.789062 135.617188 859.371094 135.46875 859.984375 135.179688 C 861.0625 134.714844 862.285156 133.898438 862.894531 133.609375 C 864.003906 133.054688 865.109375 132.445312 866.128906 131.746094 C 867.148438 131.046875 868.109375 130.292969 869.039062 129.445312 C 870.875 127.847656 872.503906 126.011719 874.046875 124.035156 C 874.253906 123.800781 874.222656 123.480469 873.992188 123.277344 C 873.785156 123.105469 873.4375 123.132812 873.261719 123.335938 Z M 844.320312 113.066406 C 844.289062 113.007812 844.261719 112.949219 844.203125 113.007812 C 844.261719 113.035156 844.261719 113.035156 844.289062 113.066406 Z M 860.449219 111.058594 C 860.304688 110.796875 859.984375 110.679688 859.722656 110.824219 C 857.449219 111.8125 855.558594 113.125 853.402344 113.851562 C 852.734375 114.054688 852.035156 114.230469 851.308594 114.316406 C 850.636719 114.375 849.910156 114.402344 849.152344 114.316406 C 849.007812 114.285156 848.25 114.082031 847.40625 113.878906 C 846.414062 113.617188 845.28125 113.328125 844.640625 113.125 C 844.523438 113.09375 844.40625 113.09375 844.320312 113.066406 L 844.347656 113.125 L 844.289062 113.066406 C 844.230469 113.066406 844.203125 113.035156 844.203125 113.007812 C 843.96875 112.859375 843.679688 112.949219 843.53125 113.179688 C 843.503906 113.238281 843.359375 113.617188 843.765625 113.878906 C 843.851562 113.910156 844.027344 113.996094 844.261719 114.113281 C 844.871094 114.375 845.976562 114.867188 846.96875 115.246094 C 847.898438 115.597656 848.746094 115.886719 848.917969 115.917969 C 849.820312 116.0625 850.695312 116.121094 851.480469 116.03125 C 852.355469 115.945312 853.199219 115.714844 853.984375 115.394531 C 855.121094 114.957031 856.167969 114.316406 857.21875 113.648438 C 858.179688 113.007812 859.140625 112.335938 860.21875 111.785156 C 860.480469 111.640625 860.566406 111.320312 860.449219 111.058594 Z M 839.457031 93.511719 C 838.960938 93.511719 838.496094 93.421875 838.058594 93.25 C 837.765625 93.132812 837.503906 92.988281 837.242188 92.785156 C 836.953125 92.578125 836.691406 92.347656 836.425781 92.054688 C 836.136719 91.765625 835.875 91.503906 835.640625 91.183594 C 835.496094 90.980469 835.261719 90.367188 835.144531 90.253906 C 834.972656 90.046875 834.769531 89.988281 834.652344 90.019531 C 834.5625 90.046875 834.449219 90.046875 834.359375 90.164062 C 834.300781 90.222656 834.214844 90.308594 834.214844 90.515625 C 834.183594 90.660156 834.242188 90.804688 834.332031 90.890625 C 834.390625 91.183594 834.476562 91.621094 834.5625 91.824219 C 834.769531 92.230469 834.972656 92.636719 835.234375 93.015625 C 835.496094 93.421875 835.84375 93.773438 836.164062 94.09375 C 836.484375 94.382812 836.835938 94.585938 837.183594 94.734375 C 837.707031 94.964844 838.292969 95.082031 838.875 95.082031 C 840.183594 95.082031 841.523438 94.585938 842.601562 93.859375 C 842.863281 93.714844 842.949219 93.394531 842.804688 93.132812 C 842.660156 92.871094 842.339844 92.785156 842.078125 92.929688 C 841.289062 93.308594 840.359375 93.511719 839.457031 93.511719 Z M 856.753906 92.027344 C 856.722656 91.941406 856.695312 91.882812 856.636719 91.910156 C 856.578125 91.910156 856.664062 91.941406 856.664062 91.96875 C 856.695312 91.996094 856.722656 91.996094 856.753906 92.027344 Z M 857.539062 91.707031 C 857.539062 91.765625 857.539062 91.851562 857.507812 91.910156 C 857.597656 91.851562 857.625 91.792969 857.65625 91.734375 C 857.800781 92.085938 858.035156 92.636719 858.207031 92.871094 C 858.5 93.191406 858.847656 93.480469 859.226562 93.6875 C 859.546875 93.890625 859.925781 93.976562 860.304688 93.976562 C 860.652344 93.976562 861.003906 93.949219 861.324219 93.859375 C 861.847656 93.714844 862.3125 93.480469 862.75 93.160156 C 864.003906 92.289062 865.023438 90.949219 865.894531 89.816406 C 866.070312 89.582031 866.390625 89.523438 866.652344 89.699219 C 866.886719 89.875 866.945312 90.195312 866.769531 90.425781 C 865.953125 91.765625 865.023438 93.367188 863.742188 94.441406 C 863.160156 94.90625 862.519531 95.316406 861.789062 95.519531 C 861.292969 95.664062 860.800781 95.695312 860.246094 95.664062 C 859.578125 95.636719 858.9375 95.375 858.382812 94.964844 C 857.886719 94.617188 857.480469 94.152344 857.160156 93.628906 C 857.042969 93.453125 856.925781 93.160156 856.839844 92.871094 C 856.78125 92.636719 856.78125 92.316406 856.753906 92.113281 C 856.664062 92.054688 856.605469 91.941406 856.578125 91.824219 C 856.488281 91.359375 856.839844 91.210938 856.898438 91.183594 C 856.925781 91.183594 857.363281 91.097656 857.566406 91.5625 C 857.566406 91.589844 857.597656 91.621094 857.625 91.679688 C 857.597656 91.679688 857.566406 91.679688 857.539062 91.679688 C 857.539062 91.679688 857.539062 91.679688 857.539062 91.707031 Z M 845.601562 96.480469 C 845.105469 97.351562 844.582031 98.226562 844.171875 99.125 C 843.792969 99.941406 843.503906 100.816406 843.300781 101.6875 C 843.066406 102.910156 843.648438 103.988281 844.667969 104.714844 C 845.890625 105.585938 847.726562 106.023438 848.859375 105.9375 C 849.179688 105.90625 849.386719 105.644531 849.386719 105.355469 C 849.355469 105.0625 849.125 104.859375 848.832031 104.859375 C 848.046875 104.859375 846.910156 104.511719 846.007812 103.929688 C 845.28125 103.460938 844.667969 102.851562 844.871094 102.035156 C 845.132812 101.019531 845.628906 100.085938 846.09375 99.125 C 846.617188 98.109375 847.144531 97.089844 847.550781 96.042969 C 847.785156 95.460938 847.988281 94.90625 848.105469 94.324219 C 848.164062 94.09375 848.367188 92.578125 848.132812 91.910156 C 848.015625 91.5625 847.8125 91.359375 847.550781 91.300781 C 847.433594 91.269531 847.289062 91.242188 847.113281 91.300781 C 846.882812 91.386719 846.707031 91.648438 846.792969 91.910156 C 846.851562 92.054688 846.96875 92.171875 847.144531 92.230469 C 847.203125 92.753906 846.910156 93.773438 846.851562 93.949219 C 846.53125 94.820312 846.066406 95.664062 845.601562 96.480469 Z M 905.378906 79.542969 C 905.378906 79.542969 879.433594 76.546875 876.058594 76.574219 C 872.652344 76.605469 868.921875 87.3125 856.226562 87.023438 C 843.503906 86.730469 806.320312 82.308594 806.320312 82.308594 L 824.082031 62.519531 C 829.644531 27.605469 860.011719 20.210938 887.648438 29.554688 C 918.511719 40 905.378906 79.542969 905.378906 79.542969 " fill-opacity="1" fill-rule="nonzero"/><path fill="#f5ba53" d="M 786.546875 229.457031 C 785.035156 228.90625 783.546875 228.4375 782.09375 228.089844 C 780.519531 227.710938 779.003906 227.421875 777.550781 227.246094 C 773.5625 226.75 770.183594 226.957031 768.230469 227.421875 C 767.066406 227.710938 765.875 228.089844 764.765625 228.613281 C 764.011719 228.992188 763.3125 229.429688 762.671875 229.980469 C 762.410156 230.214844 762.175781 230.445312 761.972656 230.738281 C 761.796875 231.027344 761.652344 231.378906 761.59375 231.726562 C 761.535156 231.988281 761.710938 232.25 761.972656 232.28125 C 762.234375 232.339844 762.496094 232.164062 762.523438 231.902344 C 762.582031 231.699219 762.699219 231.496094 762.816406 231.320312 C 762.960938 231.117188 763.136719 230.941406 763.339844 230.796875 C 764.066406 230.242188 764.914062 229.835938 765.785156 229.515625 C 766.660156 229.167969 767.621094 228.933594 768.523438 228.757812 C 770.386719 228.382812 773.5625 228.382812 777.316406 228.933594 C 778.714844 229.136719 780.171875 229.398438 781.683594 229.777344 C 783.082031 230.097656 784.539062 230.503906 785.964844 231 C 791.265625 232.832031 796.621094 235.859375 800.671875 240.71875 C 800.84375 240.953125 801.164062 240.980469 801.398438 240.777344 C 801.632812 240.601562 801.660156 240.28125 801.484375 240.050781 C 797.46875 234.839844 791.992188 231.464844 786.546875 229.457031 Z M 930.128906 261.757812 C 930.128906 261.757812 930.128906 261.785156 930.128906 261.84375 C 930.128906 261.785156 930.128906 261.726562 930.160156 261.699219 C 930.160156 261.726562 930.128906 261.726562 930.128906 261.757812 Z M 928.617188 258.847656 C 927.132812 257.742188 925.53125 256.722656 923.871094 255.851562 C 922.210938 254.949219 920.464844 254.191406 918.714844 253.609375 C 915.019531 252.359375 911.667969 251.515625 908.613281 251.046875 C 906.75 250.785156 905 250.640625 903.398438 250.582031 C 901.476562 250.554688 899.730469 250.640625 898.128906 250.816406 C 890.324219 251.777344 886.160156 254.949219 885.199219 255.964844 C 885.027344 256.167969 885.027344 256.460938 885.199219 256.636719 C 885.40625 256.839844 885.695312 256.839844 885.898438 256.636719 C 886.832031 255.734375 890.910156 253.027344 898.304688 252.386719 C 899.820312 252.269531 901.507812 252.210938 903.34375 252.300781 C 904.886719 252.359375 906.574219 252.503906 908.351562 252.765625 C 911.347656 253.203125 914.640625 253.898438 918.222656 255.0625 C 919.9375 255.585938 921.628906 256.257812 923.230469 257.070312 C 924.890625 257.855469 926.460938 258.789062 927.917969 259.808594 C 928.003906 259.894531 929.867188 261.058594 930.160156 261.609375 C 930.160156 261.640625 930.160156 261.667969 930.160156 261.699219 C 930.160156 261.667969 930.160156 261.667969 930.1875 261.640625 C 930.246094 261.757812 930.21875 261.84375 930.128906 261.902344 C 930.101562 261.929688 930.101562 261.871094 930.128906 261.84375 C 930.074219 261.960938 929.984375 262.046875 930.042969 262.191406 C 930.160156 262.453125 930.449219 262.601562 930.742188 262.511719 C 930.886719 262.425781 931.003906 262.339844 931.089844 262.222656 C 931.179688 262.046875 931.238281 261.785156 931.121094 261.464844 C 930.800781 260.710938 928.734375 258.964844 928.617188 258.847656 Z M 842.191406 380.914062 C 841.960938 381.058594 841.871094 381.351562 842.019531 381.582031 C 842.191406 381.960938 842.164062 382.457031 842.078125 382.980469 C 841.960938 383.679688 841.640625 384.433594 841.230469 385.277344 C 841.058594 385.6875 840.824219 386.121094 840.589844 386.585938 C 840.359375 386.996094 840.097656 387.429688 839.863281 387.867188 C 839.398438 388.710938 838.902344 389.527344 838.4375 390.28125 C 837.476562 391.824219 836.542969 393.105469 836.019531 393.714844 C 835.816406 393.921875 835.785156 394.242188 836.019531 394.445312 C 836.222656 394.675781 836.542969 394.675781 836.746094 394.445312 C 837.503906 393.804688 838.902344 392.261719 840.269531 390.371094 C 840.679688 389.789062 841.085938 389.175781 841.464844 388.566406 C 841.699219 388.128906 841.929688 387.722656 842.132812 387.285156 C 842.601562 386.296875 842.980469 385.277344 843.152344 384.375 C 843.445312 383.039062 843.386719 381.875 842.832031 381.117188 C 842.71875 380.882812 842.425781 380.796875 842.191406 380.914062 Z M 834.972656 378.179688 C 834.972656 378.207031 834.972656 378.265625 834.972656 378.292969 C 835 378.292969 835 378.292969 835 378.292969 C 835.03125 378.292969 835.03125 378.324219 835 378.382812 L 835.03125 378.441406 L 835 378.382812 C 834.972656 378.46875 834.941406 378.554688 834.914062 378.613281 C 834.476562 379.953125 833.050781 383.183594 832.933594 383.359375 C 832.378906 384.464844 831.738281 385.453125 831.039062 386.382812 C 830.574219 387.023438 830.109375 387.664062 829.585938 388.246094 C 828.59375 389.410156 827.546875 390.488281 826.441406 391.503906 C 825.332031 392.554688 824.167969 393.542969 823.003906 394.589844 C 822.769531 394.765625 822.742188 395.113281 822.917969 395.347656 C 823.089844 395.578125 823.441406 395.609375 823.671875 395.40625 C 824.925781 394.445312 826.179688 393.542969 827.371094 392.582031 C 828.59375 391.5625 829.757812 390.515625 830.835938 389.351562 C 831.417969 388.742188 831.972656 388.101562 832.46875 387.402344 C 833.195312 386.355469 833.808594 385.25 834.359375 384.027344 C 834.449219 383.851562 835.613281 380.300781 835.902344 378.875 C 835.960938 378.527344 835.992188 378.265625 835.960938 378.148438 C 835.875 377.828125 835.699219 377.710938 835.496094 377.710938 C 835.203125 377.710938 835 377.917969 834.972656 378.179688 Z M 834.972656 378.292969 C 834.941406 378.292969 834.972656 378.351562 835 378.382812 C 835 378.351562 835 378.324219 834.972656 378.292969 Z M 825.1875 382.425781 C 825.769531 381.726562 826.265625 380.972656 826.730469 380.128906 C 827.140625 379.371094 827.371094 378.671875 827.488281 377.972656 C 827.632812 377.101562 827.632812 376.285156 827.664062 375.472656 C 827.664062 374.714844 827.691406 373.988281 827.894531 373.203125 C 827.984375 372.96875 827.867188 372.707031 827.605469 372.589844 C 827.34375 372.535156 827.082031 372.648438 826.992188 372.910156 C 826.351562 374.484375 826.527344 376.023438 826.089844 377.65625 C 825.945312 378.207031 825.742188 378.761719 825.363281 379.34375 C 824.925781 380.070312 824.402344 380.710938 823.878906 381.320312 C 823.324219 381.988281 822.742188 382.570312 822.101562 383.125 C 820.9375 384.230469 819.65625 385.21875 818.375 386.210938 C 816.394531 387.75 814.414062 389.292969 812.785156 391.183594 C 812.609375 391.417969 812.609375 391.738281 812.839844 391.941406 C 813.046875 392.144531 813.394531 392.117188 813.597656 391.914062 C 815.257812 390.167969 817.296875 388.828125 819.277344 387.429688 C 820.644531 386.472656 822.042969 385.511719 823.265625 384.40625 C 823.964844 383.792969 824.605469 383.152344 825.1875 382.425781 Z M 712.121094 343.957031 C 711.976562 344.453125 711.800781 344.890625 711.625 345.382812 C 711.507812 345.703125 711.394531 346.023438 711.277344 346.34375 C 711.1875 346.605469 711.101562 346.867188 711.042969 347.160156 C 710.957031 347.449219 710.898438 347.710938 710.839844 348.003906 C 710.722656 348.585938 710.664062 349.167969 710.664062 349.777344 C 710.605469 350.652344 710.664062 351.523438 710.839844 352.457031 C 710.867188 352.746094 711.128906 352.980469 711.421875 352.949219 C 711.683594 352.921875 711.917969 352.660156 711.886719 352.367188 C 711.886719 351.523438 712.003906 350.769531 712.148438 350.011719 C 712.238281 349.488281 712.382812 348.964844 712.527344 348.441406 C 712.585938 348.148438 712.644531 347.859375 712.703125 347.597656 C 712.761719 347.304688 712.789062 346.984375 712.847656 346.722656 C 712.964844 345.851562 713.023438 344.976562 713.082031 344.105469 C 713.109375 343.84375 712.9375 343.582031 712.675781 343.550781 C 712.410156 343.523438 712.148438 343.695312 712.121094 343.957031 Z M 719.574219 353.183594 C 719.546875 352.6875 719.488281 352.195312 719.457031 351.699219 C 719.398438 350.652344 719.398438 349.632812 719.515625 348.703125 C 719.632812 347.625 719.894531 346.722656 720.449219 346.082031 C 720.652344 345.910156 720.652344 345.617188 720.476562 345.414062 C 720.273438 345.210938 719.984375 345.210938 719.808594 345.382812 C 718.964844 346.054688 718.410156 347.128906 718.089844 348.441406 C 717.855469 349.457031 717.742188 350.59375 717.769531 351.785156 C 717.769531 352.308594 717.796875 352.832031 717.855469 353.359375 C 717.972656 354.144531 718.117188 354.929688 718.265625 355.683594 C 718.816406 358.011719 719.632812 360.109375 720.304688 361.214844 C 720.449219 361.476562 720.769531 361.59375 721.03125 361.445312 C 721.292969 361.300781 721.378906 360.980469 721.234375 360.71875 C 720.710938 359.613281 720.1875 357.605469 719.835938 355.367188 C 719.71875 354.667969 719.664062 353.910156 719.574219 353.183594 Z M 730.347656 345.820312 C 730.40625 345.820312 730.40625 345.792969 730.378906 345.761719 L 730.347656 345.792969 Z M 729.96875 344.917969 C 730.230469 344.859375 730.496094 345.035156 730.550781 345.296875 C 730.609375 345.472656 730.523438 345.675781 730.378906 345.761719 C 730.378906 345.761719 730.347656 345.761719 730.347656 345.792969 C 730.320312 345.820312 730.261719 345.851562 730.203125 345.851562 C 730.230469 345.851562 730.289062 345.851562 730.347656 345.820312 C 730.347656 345.851562 730.347656 345.878906 730.347656 345.910156 C 730.058594 346.753906 729.910156 349.050781 729.882812 349.3125 C 729.765625 349.980469 729.679688 350.621094 729.589844 351.261719 C 729.535156 351.699219 729.476562 352.105469 729.417969 352.542969 C 729.269531 353.621094 729.183594 354.667969 729.183594 355.742188 C 729.214844 357.109375 729.359375 358.507812 729.796875 359.933594 C 729.882812 360.226562 729.738281 360.515625 729.476562 360.632812 C 729.183594 360.71875 728.894531 360.574219 728.777344 360.28125 C 728.019531 358.421875 727.671875 356.558594 727.613281 354.636719 C 727.582031 353.707031 727.640625 352.746094 727.785156 351.785156 C 727.902344 350.855469 728.136719 349.925781 728.367188 348.992188 C 728.457031 348.761719 728.835938 346.925781 729.214844 345.9375 C 729.328125 345.617188 729.445312 345.355469 729.5625 345.210938 C 729.707031 345.035156 729.855469 344.949219 729.96875 344.917969 " fill-opacity="1" fill-rule="evenodd"/><path fill="#fce8bc" d="M 836.542969 45.933594 C 838.84375 43.289062 841.582031 41.019531 844.523438 39.039062 C 846.296875 37.875 848.164062 36.828125 850.027344 35.839844 C 851.277344 35.199219 852.558594 34.558594 853.8125 33.976562 C 854.886719 33.480469 855.9375 33.015625 857.015625 32.578125 C 858.121094 32.171875 859.199219 31.734375 860.304688 31.355469 C 860.742188 31.210938 861.179688 31.039062 861.613281 30.890625 C 861.90625 30.804688 862.199219 30.71875 862.488281 30.660156 C 862.546875 30.6875 862.867188 30.746094 863.011719 30.773438 C 863.273438 30.804688 863.480469 30.746094 863.59375 30.660156 C 863.710938 30.542969 863.855469 30.398438 863.800781 30.105469 C 863.742188 29.84375 863.480469 29.667969 863.214844 29.726562 C 863.1875 29.726562 863.128906 29.757812 863.101562 29.757812 C 863.011719 29.757812 862.925781 29.699219 862.839844 29.699219 C 862.632812 29.640625 862.460938 29.613281 862.3125 29.640625 C 861.992188 29.667969 861.644531 29.757812 861.324219 29.816406 C 860.859375 29.929688 860.390625 30.046875 859.925781 30.195312 C 858.789062 30.511719 857.65625 30.863281 856.519531 31.210938 C 855.382812 31.589844 854.277344 32.027344 853.171875 32.464844 C 851.832031 33.046875 850.519531 33.628906 849.210938 34.324219 C 847.289062 35.316406 845.425781 36.480469 843.648438 37.757812 C 840.648438 39.914062 837.941406 42.414062 835.730469 45.265625 C 835.554688 45.5 835.582031 45.847656 835.816406 46.023438 C 836.050781 46.199219 836.371094 46.167969 836.542969 45.933594 Z M 887.386719 54.34375 C 886.6875 51.8125 885.871094 49.3125 884.9375 46.925781 C 884.296875 45.265625 883.570312 43.664062 882.84375 42.152344 C 882.203125 40.902344 881.5625 39.679688 880.832031 38.515625 C 880.132812 37.324219 879.347656 36.160156 878.503906 35.054688 C 878.300781 34.761719 878.066406 34.472656 877.835938 34.179688 C 877.484375 33.773438 877.136719 33.363281 876.785156 32.957031 C 876.640625 32.8125 876.40625 32.667969 876.175781 32.492188 C 876.085938 32.464844 876 32.375 875.914062 32.316406 C 875.941406 32.203125 875.882812 32.085938 875.824219 31.996094 C 875.679688 31.792969 875.359375 31.734375 875.15625 31.882812 C 875.007812 31.996094 874.953125 32.113281 874.894531 32.230469 C 874.835938 32.40625 874.863281 32.609375 875.007812 32.839844 C 875.183594 33.074219 875.765625 33.394531 875.96875 33.65625 C 876.234375 34.003906 876.496094 34.355469 876.757812 34.703125 C 877.019531 35.054688 877.25 35.402344 877.484375 35.75 C 878.242188 36.886719 878.941406 38.050781 879.582031 39.214844 C 880.222656 40.40625 880.804688 41.628906 881.355469 42.851562 C 882.054688 44.363281 882.695312 45.933594 883.335938 47.566406 C 884.238281 49.894531 885.113281 52.308594 885.871094 54.78125 C 887.152344 58.941406 888.140625 63.191406 888.667969 67.234375 C 888.695312 67.527344 888.957031 67.730469 889.25 67.699219 C 889.539062 67.671875 889.742188 67.410156 889.714844 67.117188 C 889.363281 62.957031 888.550781 58.59375 887.386719 54.34375 Z M 870.148438 28.621094 L 873.261719 28.359375 L 873.726562 28.300781 C 873.613281 28.070312 873.4375 27.867188 873.234375 27.691406 C 872.882812 27.429688 872.417969 27.285156 871.835938 27.488281 C 871.542969 27.546875 871.28125 27.691406 871.019531 27.867188 C 870.757812 28.039062 870.496094 28.273438 870.261719 28.503906 C 870.234375 28.535156 870.203125 28.59375 870.148438 28.621094 Z M 868.808594 29.667969 C 868.71875 29.582031 868.632812 29.4375 868.660156 29.175781 C 868.660156 28.941406 869.070312 28.097656 869.273438 27.75 C 869.535156 27.398438 869.828125 27.050781 870.148438 26.761719 C 870.496094 26.441406 870.902344 26.179688 871.339844 26.003906 C 872.503906 25.539062 873.554688 25.742188 874.3125 26.351562 C 875.007812 26.90625 875.476562 27.835938 875.621094 28.914062 C 875.621094 28.972656 875.679688 29.757812 874.921875 29.816406 C 874.894531 29.816406 874.894531 29.816406 874.863281 29.816406 L 873.320312 29.816406 C 872.738281 29.816406 872.15625 29.816406 871.601562 29.785156 C 871.019531 29.757812 870.4375 29.757812 869.855469 29.699219 C 869.738281 29.699219 869.652344 29.667969 869.5625 29.613281 L 869.535156 29.640625 C 869.359375 29.785156 869.214844 29.785156 869.15625 29.785156 C 869.011719 29.816406 868.894531 29.726562 868.808594 29.667969 Z M 875.214844 75.003906 C 875.417969 75.207031 875.417969 75.527344 875.214844 75.761719 C 875.039062 75.964844 874.6875 75.964844 874.484375 75.761719 C 869.011719 70.757812 864.964844 64.382812 859.664062 59.640625 C 857.566406 57.75 855.296875 56.148438 852.617188 54.984375 C 850.957031 54.257812 849.179688 53.703125 847.203125 53.382812 C 846.125 53.179688 844.988281 53.035156 843.882812 53.007812 C 842.773438 52.976562 841.699219 53.035156 840.621094 53.296875 C 839.457031 53.558594 838.320312 53.964844 837.242188 54.519531 C 836.136719 55.042969 835.058594 55.683594 834.039062 56.351562 C 833.167969 56.90625 832.320312 57.488281 831.476562 58.070312 C 830.195312 58.972656 828.945312 59.902344 827.664062 60.804688 C 827.429688 60.980469 826.820312 61.300781 826.351562 61.648438 C 826.121094 61.824219 825.886719 61.96875 825.828125 62.144531 C 825.769531 62.40625 825.480469 62.550781 825.246094 62.492188 C 824.984375 62.40625 824.839844 62.144531 824.898438 61.882812 C 824.984375 61.621094 825.1875 61.328125 825.539062 61.039062 C 826.03125 60.601562 826.730469 60.164062 827.023438 59.960938 C 828.273438 59 829.496094 58.011719 830.75 57.082031 C 831.566406 56.441406 832.410156 55.800781 833.28125 55.21875 C 834.535156 54.34375 835.875 53.5 837.273438 52.832031 C 838.234375 52.367188 839.222656 51.988281 840.242188 51.726562 C 841.203125 51.492188 842.191406 51.375 843.183594 51.347656 C 844.640625 51.320312 846.066406 51.464844 847.492188 51.695312 C 849.617188 52.046875 851.539062 52.628906 853.289062 53.414062 C 856.140625 54.664062 858.558594 56.410156 860.742188 58.449219 C 865.984375 63.335938 869.855469 69.855469 875.214844 75.003906 " fill-opacity="1" fill-rule="evenodd"/><path fill="#fce8bc" d="M 870.582031 626.472656 C 870.582031 626.472656 806.320312 655.132812 750.671875 680.011719 C 710.605469 697.9375 675.023438 713.882812 671.121094 715.628906 C 667.453125 714 635.742188 700.003906 600.042969 684.320312 C 550.308594 662.4375 492.828125 637.269531 492.828125 637.269531 C 492.566406 637.152344 492.304688 637.269531 492.1875 637.5 C 492.070312 637.761719 492.1875 638.023438 492.421875 638.140625 C 492.421875 638.140625 549.757812 663.6875 599.402344 685.746094 C 637.316406 702.59375 670.773438 717.375 670.773438 717.375 C 671.003906 717.460938 671.265625 717.460938 671.472656 717.375 C 671.472656 717.375 708.886719 700.558594 751.3125 681.4375 C 806.871094 656.386719 871.019531 627.433594 871.019531 627.433594 C 871.3125 627.316406 871.429688 626.996094 871.3125 626.734375 C 871.164062 626.445312 870.875 626.328125 870.582031 626.472656 Z M 672.78125 741.527344 C 673.015625 746.589844 673.160156 750.578125 673.160156 750.578125 C 673.1875 750.867188 672.957031 751.128906 672.664062 751.128906 C 672.375 751.160156 672.140625 750.953125 672.113281 750.664062 C 672.113281 750.664062 671.703125 746.675781 671.265625 741.613281 C 671.09375 739.722656 670.917969 737.65625 670.773438 735.589844 C 670.683594 734.601562 670.625 733.582031 670.570312 732.59375 C 670.511719 731.546875 670.453125 730.527344 670.421875 729.566406 C 670.191406 724.476562 670.101562 720.488281 670.101562 720.488281 C 670.101562 720.226562 670.304688 719.996094 670.570312 719.996094 C 670.832031 719.964844 671.0625 720.167969 671.0625 720.429688 C 671.0625 720.429688 671.53125 724.386719 671.996094 729.453125 C 672.082031 730.410156 672.171875 731.429688 672.257812 732.449219 C 672.34375 733.464844 672.402344 734.457031 672.460938 735.472656 C 672.605469 737.539062 672.695312 739.605469 672.78125 741.527344 " fill-opacity="1" fill-rule="evenodd"/><path fill="#bd651d" d="M 692.058594 538.277344 C 692.058594 538.277344 691.039062 559.402344 689.875 586.316406 C 689.640625 591.496094 689.410156 596.851562 689.175781 602.320312 C 688.972656 607.617188 688.769531 612.972656 688.5625 618.355469 C 688.15625 629.296875 687.75 640.265625 687.398438 650.390625 C 686.46875 677.308594 685.769531 698.460938 685.769531 698.460938 C 685.738281 698.753906 685.972656 699.015625 686.261719 699.015625 C 686.554688 699.015625 686.816406 698.78125 686.816406 698.492188 C 686.816406 698.492188 687.777344 677.367188 688.914062 650.449219 C 689.351562 640.324219 689.84375 629.382812 690.28125 618.414062 C 690.484375 613.058594 690.691406 607.675781 690.894531 602.410156 C 691.097656 596.910156 691.300781 591.554688 691.476562 586.375 C 692.378906 559.460938 693.019531 538.304688 693.019531 538.304688 C 693.019531 538.042969 692.816406 537.8125 692.554688 537.8125 C 692.289062 537.8125 692.058594 538.015625 692.058594 538.277344 Z M 836.339844 481.824219 C 836.339844 481.824219 789.519531 498.441406 749.042969 512.875 C 720.070312 523.203125 694.328125 532.398438 691.183594 533.535156 C 689.203125 532.691406 678.34375 527.832031 663.40625 521.253906 C 655.046875 517.53125 645.382812 513.28125 635.304688 508.859375 C 596.199219 491.632812 550.980469 471.816406 550.980469 471.816406 C 550.746094 471.699219 550.453125 471.816406 550.339844 472.050781 C 550.25 472.3125 550.339844 472.574219 550.601562 472.6875 C 550.601562 472.6875 595.648438 492.882812 634.664062 510.3125 C 644.710938 514.792969 654.347656 519.070312 662.734375 522.796875 C 679.214844 530.128906 690.777344 535.25 690.777344 535.25 C 690.980469 535.335938 691.214844 535.335938 691.445312 535.277344 C 691.445312 535.277344 718.671875 525.472656 749.539062 514.328125 C 789.984375 499.722656 836.691406 482.816406 836.691406 482.816406 C 836.953125 482.699219 837.097656 482.40625 837.011719 482.144531 C 836.894531 481.855469 836.601562 481.710938 836.339844 481.824219 Z M 613.554688 428.167969 C 620.804688 431.542969 628.636719 435.179688 636.5 438.789062 C 640.34375 440.566406 644.1875 442.339844 647.972656 444.054688 C 651.902344 445.859375 655.746094 447.605469 659.472656 449.265625 C 677.703125 457.5 692.085938 463.902344 693.746094 464.628906 C 693.746094 465.9375 693.804688 473.125 693.949219 482.117188 C 694.007812 485.839844 694.066406 489.886719 694.15625 493.929688 C 694.183594 495.910156 694.242188 497.886719 694.300781 499.835938 C 694.386719 501.875 694.445312 503.851562 694.503906 505.746094 C 694.910156 515.695312 695.289062 523.496094 695.289062 523.496094 C 695.289062 523.757812 695.523438 523.960938 695.785156 523.960938 C 696.046875 523.960938 696.25 523.726562 696.25 523.464844 C 696.25 523.464844 696.25 523.320312 696.25 523.175781 C 697.882812 522.417969 702.074219 520.757812 708.101562 518.429688 C 715.003906 515.785156 724.261719 512.292969 734.453125 508.449219 C 740.105469 506.328125 746.042969 504.085938 752.070312 501.816406 C 760.953125 498.410156 769.980469 494.949219 778.394531 491.71875 C 798.222656 484.152344 814.675781 477.867188 817.9375 476.675781 C 818.226562 476.558594 818.375 476.269531 818.257812 475.976562 C 818.171875 475.714844 817.851562 475.570312 817.585938 475.65625 C 814.035156 476.910156 795.28125 483.777344 773.445312 491.921875 C 767.707031 494.046875 761.769531 496.257812 755.828125 498.527344 C 751.898438 500.011719 747.964844 501.496094 744.121094 502.980469 C 735.414062 506.328125 727.058594 509.585938 719.777344 512.464844 C 708.074219 517.09375 699.28125 520.699219 696.25 522.097656 C 696.222656 519.449219 696.191406 513.195312 696.132812 505.714844 C 696.105469 503.824219 696.046875 501.816406 696.019531 499.808594 C 695.988281 497.859375 695.929688 495.878906 695.871094 493.902344 C 695.757812 489.855469 695.609375 485.8125 695.464844 482.058594 C 695.171875 473.386719 694.882812 466.375 694.824219 464.714844 C 697.269531 463.988281 712.761719 459.507812 732.269531 453.804688 C 736.347656 452.582031 740.570312 451.332031 744.90625 450.050781 C 749.070312 448.800781 753.292969 447.546875 757.546875 446.269531 C 766.164062 443.679688 774.785156 441.03125 782.761719 438.585938 C 803.929688 432.125 820.558594 427.003906 820.558594 427.003906 C 820.847656 426.917969 820.996094 426.625 820.90625 426.335938 C 820.820312 426.074219 820.527344 425.898438 820.265625 425.988281 C 820.265625 425.988281 803.554688 430.875 782.324219 437.132812 C 774.316406 439.488281 765.667969 442.046875 757.050781 444.609375 C 752.800781 445.890625 748.578125 447.171875 744.414062 448.421875 C 740.105469 449.730469 735.882812 451.011719 731.804688 452.261719 C 711.65625 458.460938 695.8125 463.378906 694.328125 463.84375 C 693.570312 463.492188 678.894531 456.570312 660.144531 447.808594 C 656.445312 446.09375 652.601562 444.320312 648.699219 442.515625 C 644.914062 440.769531 641.042969 438.992188 637.199219 437.21875 C 629.335938 433.640625 621.476562 430.089844 614.195312 426.800781 C 594.859375 418.042969 579.660156 411.203125 579.660156 411.203125 C 579.371094 411.089844 579.078125 411.203125 578.933594 411.464844 C 578.816406 411.726562 578.933594 412.046875 579.195312 412.164062 C 579.195312 412.164062 594.308594 419.234375 613.554688 428.167969 Z M 576.980469 466.082031 C 576.980469 465.96875 576.953125 465.878906 576.867188 465.96875 C 576.867188 465.996094 576.894531 466.027344 576.921875 466.054688 Z M 576.28125 466.753906 C 575.90625 466.460938 576.019531 466.113281 576.078125 466.027344 C 576.226562 465.792969 576.515625 465.734375 576.75 465.878906 C 576.777344 465.910156 576.835938 465.9375 576.867188 465.96875 L 576.835938 465.96875 C 576.835938 465.996094 576.867188 466.027344 576.921875 466.054688 C 576.953125 466.113281 576.953125 466.171875 576.953125 466.230469 L 576.980469 466.140625 L 576.980469 466.082031 C 577.039062 466.140625 577.15625 466.171875 577.242188 466.230469 C 578.089844 466.695312 579.894531 467.597656 582.457031 468.847656 C 589.066406 472.078125 600.742188 477.546875 614.28125 483.980469 C 621.007812 487.152344 628.203125 490.613281 635.453125 494.105469 C 643.371094 497.945312 651.351562 501.84375 658.890625 505.597656 C 673.304688 512.726562 686.089844 519.246094 693.746094 523.4375 C 693.980469 523.582031 694.097656 523.902344 693.949219 524.164062 C 693.804688 524.425781 693.484375 524.511719 693.222656 524.367188 C 685.070312 520.003906 671.003906 513.136719 655.398438 505.597656 C 647.128906 501.613281 638.449219 497.480469 630.007812 493.40625 C 624.183594 490.585938 618.476562 487.847656 613.089844 485.203125 C 603.1875 480.398438 594.367188 476.035156 587.8125 472.777344 C 582.746094 470.246094 579.078125 468.351562 577.332031 467.394531 C 576.777344 467.101562 576.429688 466.871094 576.28125 466.753906 " fill-opacity="1" fill-rule="evenodd"/><path fill="#fce8bc" d="M 624.125 634.679688 L 660.988281 650.332031 L 664.277344 579.566406 L 628.144531 566.441406 Z M 777.578125 502.980469 L 765.582031 495.589844 L 740.949219 506.296875 L 751.632812 514.734375 L 753.410156 594.8125 L 780.199219 583.085938 Z M 678.257812 411.785156 L 698.84375 423.773438 L 652.863281 443.96875 L 648.496094 483.628906 L 623.832031 472.660156 L 629.015625 432.941406 L 678.257812 411.785156 " fill-opacity="1" fill-rule="evenodd"/><path fill="#fce8bc" d="M 884.648438 652.457031 C 884.589844 652.488281 884.503906 652.515625 884.386719 652.515625 C 884.445312 652.339844 884.472656 652.167969 884.503906 652.050781 C 884.53125 651.933594 884.589844 651.816406 884.617188 651.730469 C 885.054688 651.03125 885.578125 650.390625 885.726562 650.21875 C 886.570312 649.082031 889.132812 646.230469 891.722656 644.484375 C 892.683594 643.875 893.644531 643.378906 894.488281 643.234375 C 895.042969 643.144531 895.566406 643.203125 895.976562 643.554688 C 896.0625 643.640625 896.03125 643.726562 896.03125 643.84375 C 895.976562 644.019531 895.917969 644.195312 895.800781 644.367188 C 895.507812 644.980469 895.015625 645.5625 894.722656 645.851562 C 893.734375 647.015625 892.539062 648.035156 891.285156 648.9375 C 889.976562 649.839844 888.609375 650.625 887.210938 651.324219 C 886.800781 651.527344 886.367188 651.730469 885.929688 651.933594 C 885.519531 652.109375 885.085938 652.28125 884.648438 652.457031 Z M 883.394531 649.867188 C 883.308594 650.246094 883.222656 650.59375 883.132812 650.972656 C 882.988281 651.234375 882.84375 651.46875 882.695312 651.699219 C 881.941406 651.292969 881.445312 650.101562 881.007812 648.675781 C 880.105469 645.5625 879.785156 641.253906 879.582031 639.683594 C 879.523438 639.21875 879.289062 638.054688 879.347656 637.066406 C 879.347656 636.800781 879.40625 636.539062 879.464844 636.335938 C 879.523438 636.25 879.550781 636.132812 879.667969 636.105469 C 879.8125 636.046875 879.960938 636.132812 880.105469 636.222656 C 880.339844 636.367188 880.542969 636.570312 880.714844 636.773438 C 881.183594 637.355469 881.589844 638.054688 881.792969 638.433594 C 882.582031 639.859375 883.074219 641.457031 883.394531 643.117188 C 883.6875 644.777344 883.746094 646.492188 883.628906 648.121094 C 883.570312 648.675781 883.511719 649.285156 883.394531 649.867188 Z M 882.636719 652.835938 C 882.464844 652.75 882.636719 652.660156 882.84375 652.574219 C 882.8125 652.75 882.753906 652.863281 882.636719 652.835938 Z M 908.203125 664.476562 C 902.847656 662.902344 897.984375 659.265625 892.773438 656.328125 C 891.492188 655.628906 890.152344 654.902344 888.78125 654.320312 C 888.027344 653.96875 887.269531 653.679688 886.453125 653.445312 L 886.597656 653.386719 C 887.035156 653.183594 887.5 652.980469 887.9375 652.777344 C 889.394531 652.078125 890.878906 651.234375 892.21875 650.304688 C 893.617188 649.316406 894.898438 648.238281 896.003906 646.988281 C 896.5 646.464844 897.488281 645.210938 897.691406 644.195312 C 897.867188 643.4375 897.691406 642.769531 897.082031 642.242188 C 895.769531 641.136719 893.964844 641.3125 892.074219 642.273438 C 889.480469 643.613281 886.714844 646.433594 885.199219 648.210938 C 885.316406 646.464844 885.199219 644.628906 884.851562 642.824219 C 884.503906 641.050781 883.917969 639.277344 883.015625 637.734375 C 882.667969 637.152344 881.910156 635.84375 881.035156 635.203125 C 880.484375 634.792969 879.871094 634.648438 879.261719 634.824219 C 878.621094 635.027344 878.242188 635.640625 878.097656 636.453125 C 877.921875 637.617188 878.269531 639.246094 878.359375 639.859375 C 878.589844 641.457031 879 645.824219 880.019531 648.964844 C 880.570312 650.710938 881.300781 652.078125 882.261719 652.542969 C 882.289062 652.574219 882.316406 652.574219 882.347656 652.574219 C 882.230469 653.039062 882.289062 653.417969 882.464844 653.652344 C 882.464844 653.707031 882.492188 653.738281 882.523438 653.765625 C 882.550781 653.882812 882.582031 654.027344 882.667969 654.175781 C 882.726562 654.261719 882.957031 654.523438 883.425781 654.582031 C 883.976562 654.699219 885.375 654.757812 885.550781 654.8125 C 886.453125 655.019531 887.328125 655.339844 888.199219 655.714844 C 889.511719 656.269531 890.792969 656.9375 892.042969 657.609375 C 897.402344 660.546875 902.410156 664.15625 907.882812 665.640625 C 911.554688 666.65625 915.457031 666.746094 919.792969 665.058594 C 920.054688 664.96875 920.203125 664.648438 920.085938 664.386719 C 919.996094 664.097656 919.675781 663.980469 919.414062 664.066406 C 915.308594 665.582031 911.667969 665.464844 908.203125 664.476562 Z M 923.871094 402.882812 C 924.074219 403.085938 924.074219 403.433594 923.871094 403.640625 C 923.636719 403.84375 923.316406 403.84375 923.113281 403.640625 C 922.179688 402.738281 921.105469 401.980469 919.9375 401.28125 C 917.230469 399.625 914.085938 398.34375 911.640625 396.566406 C 908.496094 394.269531 905.847656 391.621094 903.605469 388.683594 C 902.703125 387.488281 901.886719 386.238281 901.101562 384.929688 C 899.964844 383.039062 898.945312 381.058594 898.011719 378.964844 C 897.691406 378.265625 895.1875 373.320312 894.109375 370.320312 C 893.820312 369.476562 893.617188 368.808594 893.585938 368.34375 C 893.558594 367.964844 893.644531 367.703125 893.761719 367.558594 C 893.90625 367.324219 894.199219 367.296875 894.429688 367.46875 C 894.605469 367.617188 894.664062 367.878906 894.546875 368.082031 C 894.429688 368.050781 894.578125 368.371094 894.664062 368.632812 C 894.867188 369.449219 895.449219 370.699219 896.089844 372.039062 C 897.429688 374.746094 899.121094 377.769531 899.382812 378.324219 C 900.371094 380.332031 901.421875 382.222656 902.554688 384.054688 C 903.34375 385.277344 904.128906 386.472656 905 387.636719 C 907.128906 390.488281 909.574219 393.105469 912.542969 395.347656 C 914.902344 397.179688 917.960938 398.546875 920.578125 400.265625 C 921.804688 401.050781 922.910156 401.894531 923.871094 402.882812 Z M 894.664062 628.074219 C 894.636719 628.074219 894.605469 628.074219 894.605469 628.042969 C 894.605469 628.015625 894.664062 628.074219 894.664062 628.074219 Z M 894.664062 628.074219 L 894.695312 628.101562 L 894.722656 628.101562 C 894.695312 628.101562 894.695312 628.101562 894.664062 628.074219 Z M 894.722656 628.132812 L 894.75 628.132812 C 894.78125 628.160156 894.78125 628.160156 894.808594 628.191406 C 894.808594 628.160156 894.78125 628.132812 894.722656 628.132812 Z M 914.117188 626.878906 C 912.195312 627.230469 910.242188 627.550781 908.292969 627.8125 C 907.273438 627.957031 906.222656 628.074219 905.207031 628.160156 C 904.15625 628.277344 903.136719 628.335938 902.089844 628.335938 C 901.683594 628.335938 897.082031 628.191406 895.246094 628.101562 C 895.042969 628.074219 894.839844 628.101562 894.722656 628.101562 L 894.695312 628.101562 L 894.664062 628.074219 L 894.636719 628.074219 L 894.605469 628.042969 C 894.375 627.957031 894.109375 628.074219 894.023438 628.304688 C 893.964844 628.363281 893.90625 628.886719 894.429688 629.003906 C 894.546875 629.035156 894.808594 629.0625 895.160156 629.121094 C 896.992188 629.382812 901.652344 629.847656 902.0625 629.878906 C 903.371094 629.933594 904.679688 629.90625 905.960938 629.820312 C 906.835938 629.761719 907.679688 629.671875 908.554688 629.527344 C 910.535156 629.238281 912.484375 628.828125 914.40625 628.394531 C 917.289062 627.753906 920.144531 627.027344 923.113281 626.589844 C 923.40625 626.558594 923.609375 626.269531 923.578125 626.007812 C 923.519531 625.6875 923.257812 625.511719 922.96875 625.542969 C 919.96875 625.832031 917.054688 626.355469 914.117188 626.878906 " fill-opacity="1" fill-rule="evenodd"/></svg>