<svg xmlns="http://www.w3.org/2000/svg" xmlns:xlink="http://www.w3.org/1999/xlink" width="1920" zoomAndPan="magnify" viewBox="0 0 1440 809.999993" height="1080" preserveAspectRatio="xMidYMid meet" version="1.0"><defs><clipPath id="8b8c984480"><path d="M 550 201 L 1195.3125 201 L 1195.3125 360 L 550 360 Z M 550 201 " clip-rule="nonzero"/></clipPath><clipPath id="8aa9665073"><path d="M 811 358 L 1195.3125 358 L 1195.3125 673 L 811 673 Z M 811 358 " clip-rule="nonzero"/></clipPath><clipPath id="dcb9c3b530"><path d="M 290.0625 201 L 812 201 L 812 673.488281 L 290.0625 673.488281 Z M 290.0625 201 " clip-rule="nonzero"/></clipPath><clipPath id="834762f7fb"><path d="M 327 400 L 774 400 L 774 673.488281 L 327 673.488281 Z M 327 400 " clip-rule="nonzero"/></clipPath><clipPath id="d079ad40b4"><path d="M 926 117.738281 L 1014 117.738281 L 1014 297 L 926 297 Z M 926 117.738281 " clip-rule="nonzero"/></clipPath><clipPath id="c82aaaa8fd"><path d="M 1013 117.738281 L 1049 117.738281 L 1049 297 L 1013 297 Z M 1013 117.738281 " clip-rule="nonzero"/></clipPath><clipPath id="5ea41f687a"><path d="M 755 117.738281 L 843 117.738281 L 843 297 L 755 297 Z M 755 117.738281 " clip-rule="nonzero"/></clipPath><clipPath id="52dc74a40b"><path d="M 842 117.738281 L 878 117.738281 L 878 297 L 842 297 Z M 842 117.738281 " clip-rule="nonzero"/></clipPath></defs><g clip-path="url(#8b8c984480)"><path fill="#fabd0d" d="M 934.449219 201.203125 L 550.726562 201.203125 L 550.726562 359.214844 L 1195.195312 359.214844 L 934.449219 201.203125 " fill-opacity="1" fill-rule="nonzero"/></g><g clip-path="url(#8aa9665073)"><path fill="#ed621c" d="M 1195.195312 672.492188 L 811.480469 672.492188 L 811.480469 358.488281 L 1195.195312 358.488281 L 1195.195312 672.492188 " fill-opacity="1" fill-rule="nonzero"/></g><g clip-path="url(#dcb9c3b530)"><path fill="#f79436" d="M 550.726562 201.203125 L 289.980469 359.214844 L 289.980469 673.21875 L 811.480469 673.21875 L 811.480469 359.214844 L 550.726562 201.203125 " fill-opacity="1" fill-rule="nonzero"/></g><g clip-path="url(#834762f7fb)"><path fill="#203140" d="M 773.503906 673.21875 L 327.953125 673.21875 L 327.953125 400.742188 L 773.503906 400.742188 L 773.503906 673.21875 " fill-opacity="1" fill-rule="nonzero"/></g><path fill="#3d5e75" d="M 773.503906 437.207031 L 327.953125 437.207031 L 327.953125 400.742188 L 773.503906 400.742188 L 773.503906 437.207031 " fill-opacity="1" fill-rule="nonzero"/><path fill="#f79436" d="M 653.097656 672.976562 L 601.808594 672.976562 L 601.808594 624.632812 L 653.097656 624.632812 L 653.097656 672.976562 " fill-opacity="1" fill-rule="nonzero"/><path fill="#ed621c" d="M 653.097656 631.996094 L 601.808594 631.996094 L 601.808594 624.632812 L 653.097656 624.632812 L 653.097656 631.996094 " fill-opacity="1" fill-rule="nonzero"/><path fill="#fabd0d" d="M 614.945312 634.945312 L 613.839844 634.945312 L 613.519531 634.40625 L 612.835938 634.945312 L 611.628906 634.945312 L 610.574219 634.074219 L 610.257812 634.945312 L 608.65625 634.945312 L 608.65625 624.632812 L 614.945312 624.632812 L 614.945312 634.945312 " fill-opacity="1" fill-rule="nonzero"/><path fill="#fabd0d" d="M 646.242188 634.945312 L 645.136719 634.945312 L 644.816406 634.40625 L 644.132812 634.945312 L 642.925781 634.945312 L 641.875 634.074219 L 641.554688 634.945312 L 639.960938 634.945312 L 639.960938 624.632812 L 646.242188 624.632812 L 646.242188 634.945312 " fill-opacity="1" fill-rule="nonzero"/><path fill="#fabd0d" d="M 630.59375 672.976562 L 624.304688 672.976562 L 624.304688 666.945312 L 625.511719 666.945312 L 625.957031 667.488281 L 627.738281 666.945312 L 628.941406 667.59375 L 630.59375 666.945312 L 630.59375 672.976562 " fill-opacity="1" fill-rule="nonzero"/><path fill="#ed621c" d="M 647.03125 655.039062 L 607.871094 655.039062 L 607.871094 644.523438 L 647.03125 644.523438 L 647.03125 655.039062 " fill-opacity="1" fill-rule="nonzero"/><path fill="#f79436" d="M 709.378906 672.976562 L 658.089844 672.976562 L 658.089844 624.632812 L 709.378906 624.632812 L 709.378906 672.976562 " fill-opacity="1" fill-rule="nonzero"/><path fill="#ed621c" d="M 709.378906 631.996094 L 658.089844 631.996094 L 658.089844 624.632812 L 709.378906 624.632812 L 709.378906 631.996094 " fill-opacity="1" fill-rule="nonzero"/><path fill="#fabd0d" d="M 671.226562 634.945312 L 670.121094 634.945312 L 669.800781 634.40625 L 669.113281 634.945312 L 667.90625 634.945312 L 666.855469 634.074219 L 666.535156 634.945312 L 664.9375 634.945312 L 664.9375 624.632812 L 671.226562 624.632812 L 671.226562 634.945312 " fill-opacity="1" fill-rule="nonzero"/><path fill="#fabd0d" d="M 702.523438 634.945312 L 701.417969 634.945312 L 701.097656 634.40625 L 700.410156 634.945312 L 699.207031 634.945312 L 698.152344 634.074219 L 697.832031 634.945312 L 696.242188 634.945312 L 696.242188 624.632812 L 702.523438 624.632812 L 702.523438 634.945312 " fill-opacity="1" fill-rule="nonzero"/><path fill="#fabd0d" d="M 686.875 672.976562 L 680.585938 672.976562 L 680.585938 666.945312 L 681.792969 666.945312 L 682.238281 667.488281 L 684.015625 666.945312 L 685.222656 667.59375 L 686.875 666.945312 L 686.875 672.976562 " fill-opacity="1" fill-rule="nonzero"/><path fill="#ed621c" d="M 703.308594 655.039062 L 664.152344 655.039062 L 664.152344 644.523438 L 703.308594 644.523438 L 703.308594 655.039062 " fill-opacity="1" fill-rule="nonzero"/><path fill="#f79436" d="M 765.65625 672.976562 L 714.367188 672.976562 L 714.367188 624.632812 L 765.65625 624.632812 L 765.65625 672.976562 " fill-opacity="1" fill-rule="nonzero"/><path fill="#ed621c" d="M 765.65625 631.996094 L 714.367188 631.996094 L 714.367188 624.632812 L 765.65625 624.632812 L 765.65625 631.996094 " fill-opacity="1" fill-rule="nonzero"/><path fill="#fabd0d" d="M 727.503906 634.945312 L 726.398438 634.945312 L 726.078125 634.40625 L 725.394531 634.945312 L 724.1875 634.945312 L 723.136719 634.074219 L 722.816406 634.945312 L 721.214844 634.945312 L 721.214844 624.632812 L 727.503906 624.632812 L 727.503906 634.945312 " fill-opacity="1" fill-rule="nonzero"/><path fill="#fabd0d" d="M 758.804688 634.945312 L 757.695312 634.945312 L 757.378906 634.40625 L 756.691406 634.945312 L 755.484375 634.945312 L 754.433594 634.074219 L 754.113281 634.945312 L 752.519531 634.945312 L 752.519531 624.632812 L 758.804688 624.632812 L 758.804688 634.945312 " fill-opacity="1" fill-rule="nonzero"/><path fill="#fabd0d" d="M 743.152344 672.976562 L 736.867188 672.976562 L 736.867188 666.945312 L 738.070312 666.945312 L 738.515625 667.488281 L 740.296875 666.945312 L 741.503906 667.59375 L 743.152344 666.945312 L 743.152344 672.976562 " fill-opacity="1" fill-rule="nonzero"/><path fill="#ed621c" d="M 759.589844 655.039062 L 720.429688 655.039062 L 720.429688 644.523438 L 759.589844 644.523438 L 759.589844 655.039062 " fill-opacity="1" fill-rule="nonzero"/><path fill="#f79436" d="M 653.097656 624.632812 L 601.808594 624.632812 L 601.808594 576.292969 L 653.097656 576.292969 L 653.097656 624.632812 " fill-opacity="1" fill-rule="nonzero"/><path fill="#ed621c" d="M 653.097656 583.648438 L 601.808594 583.648438 L 601.808594 576.292969 L 653.097656 576.292969 L 653.097656 583.648438 " fill-opacity="1" fill-rule="nonzero"/><path fill="#fabd0d" d="M 614.945312 586.609375 L 613.839844 586.609375 L 613.519531 586.066406 L 612.835938 586.609375 L 611.628906 586.609375 L 610.574219 585.734375 L 610.257812 586.609375 L 608.65625 586.609375 L 608.65625 576.292969 L 614.945312 576.292969 L 614.945312 586.609375 " fill-opacity="1" fill-rule="nonzero"/><path fill="#fabd0d" d="M 646.242188 586.609375 L 645.136719 586.609375 L 644.816406 586.066406 L 644.132812 586.609375 L 642.925781 586.609375 L 641.875 585.734375 L 641.554688 586.609375 L 639.960938 586.609375 L 639.960938 576.292969 L 646.242188 576.292969 L 646.242188 586.609375 " fill-opacity="1" fill-rule="nonzero"/><path fill="#fabd0d" d="M 630.59375 624.632812 L 624.304688 624.632812 L 624.304688 618.609375 L 625.511719 618.609375 L 625.957031 619.148438 L 627.738281 618.609375 L 628.941406 619.246094 L 630.59375 618.609375 L 630.59375 624.632812 " fill-opacity="1" fill-rule="nonzero"/><path fill="#ed621c" d="M 647.03125 606.699219 L 607.871094 606.699219 L 607.871094 596.183594 L 647.03125 596.183594 L 647.03125 606.699219 " fill-opacity="1" fill-rule="nonzero"/><path fill="#f79436" d="M 709.378906 624.632812 L 658.089844 624.632812 L 658.089844 576.292969 L 709.378906 576.292969 L 709.378906 624.632812 " fill-opacity="1" fill-rule="nonzero"/><path fill="#ed621c" d="M 709.378906 583.648438 L 658.089844 583.648438 L 658.089844 576.292969 L 709.378906 576.292969 L 709.378906 583.648438 " fill-opacity="1" fill-rule="nonzero"/><path fill="#fabd0d" d="M 671.226562 586.609375 L 670.121094 586.609375 L 669.800781 586.066406 L 669.113281 586.609375 L 667.90625 586.609375 L 666.855469 585.734375 L 666.535156 586.609375 L 664.9375 586.609375 L 664.9375 576.292969 L 671.226562 576.292969 L 671.226562 586.609375 " fill-opacity="1" fill-rule="nonzero"/><path fill="#fabd0d" d="M 702.523438 586.609375 L 701.417969 586.609375 L 701.097656 586.066406 L 700.410156 586.609375 L 699.207031 586.609375 L 698.152344 585.734375 L 697.832031 586.609375 L 696.242188 586.609375 L 696.242188 576.292969 L 702.523438 576.292969 L 702.523438 586.609375 " fill-opacity="1" fill-rule="nonzero"/><path fill="#fabd0d" d="M 686.875 624.632812 L 680.585938 624.632812 L 680.585938 618.609375 L 681.792969 618.609375 L 682.238281 619.148438 L 684.015625 618.609375 L 685.222656 619.246094 L 686.875 618.609375 L 686.875 624.632812 " fill-opacity="1" fill-rule="nonzero"/><path fill="#ed621c" d="M 703.308594 606.699219 L 664.152344 606.699219 L 664.152344 596.183594 L 703.308594 596.183594 L 703.308594 606.699219 " fill-opacity="1" fill-rule="nonzero"/><path fill="#f79436" d="M 765.65625 624.632812 L 714.367188 624.632812 L 714.367188 576.292969 L 765.65625 576.292969 L 765.65625 624.632812 " fill-opacity="1" fill-rule="nonzero"/><path fill="#ed621c" d="M 765.65625 583.648438 L 714.367188 583.648438 L 714.367188 576.292969 L 765.65625 576.292969 L 765.65625 583.648438 " fill-opacity="1" fill-rule="nonzero"/><path fill="#fabd0d" d="M 727.503906 586.609375 L 726.398438 586.609375 L 726.078125 586.066406 L 725.394531 586.609375 L 724.1875 586.609375 L 723.136719 585.734375 L 722.816406 586.609375 L 721.214844 586.609375 L 721.214844 576.292969 L 727.503906 576.292969 L 727.503906 586.609375 " fill-opacity="1" fill-rule="nonzero"/><path fill="#fabd0d" d="M 758.804688 586.609375 L 757.695312 586.609375 L 757.378906 586.066406 L 756.691406 586.609375 L 755.484375 586.609375 L 754.433594 585.734375 L 754.113281 586.609375 L 752.519531 586.609375 L 752.519531 576.292969 L 758.804688 576.292969 L 758.804688 586.609375 " fill-opacity="1" fill-rule="nonzero"/><path fill="#fabd0d" d="M 743.152344 624.632812 L 736.867188 624.632812 L 736.867188 618.609375 L 738.070312 618.609375 L 738.515625 619.148438 L 740.296875 618.609375 L 741.503906 619.246094 L 743.152344 618.609375 L 743.152344 624.632812 " fill-opacity="1" fill-rule="nonzero"/><path fill="#ed621c" d="M 759.589844 606.699219 L 720.429688 606.699219 L 720.429688 596.183594 L 759.589844 596.183594 L 759.589844 606.699219 " fill-opacity="1" fill-rule="nonzero"/><path fill="#f79436" d="M 653.097656 576.292969 L 601.808594 576.292969 L 601.808594 527.953125 L 653.097656 527.953125 L 653.097656 576.292969 " fill-opacity="1" fill-rule="nonzero"/><path fill="#ed621c" d="M 653.097656 535.308594 L 601.808594 535.308594 L 601.808594 527.953125 L 653.097656 527.953125 L 653.097656 535.308594 " fill-opacity="1" fill-rule="nonzero"/><path fill="#fabd0d" d="M 614.945312 538.269531 L 613.839844 538.269531 L 613.519531 537.730469 L 612.835938 538.269531 L 611.628906 538.269531 L 610.574219 537.394531 L 610.257812 538.269531 L 608.65625 538.269531 L 608.65625 527.953125 L 614.945312 527.953125 L 614.945312 538.269531 " fill-opacity="1" fill-rule="nonzero"/><path fill="#fabd0d" d="M 646.242188 538.269531 L 645.136719 538.269531 L 644.816406 537.730469 L 644.132812 538.269531 L 642.925781 538.269531 L 641.875 537.394531 L 641.554688 538.269531 L 639.960938 538.269531 L 639.960938 527.953125 L 646.242188 527.953125 L 646.242188 538.269531 " fill-opacity="1" fill-rule="nonzero"/><path fill="#fabd0d" d="M 630.59375 576.292969 L 624.304688 576.292969 L 624.304688 570.269531 L 625.511719 570.269531 L 625.957031 570.808594 L 627.738281 570.269531 L 628.941406 570.910156 L 630.59375 570.269531 L 630.59375 576.292969 " fill-opacity="1" fill-rule="nonzero"/><path fill="#ed621c" d="M 647.03125 558.359375 L 607.871094 558.359375 L 607.871094 547.84375 L 647.03125 547.84375 L 647.03125 558.359375 " fill-opacity="1" fill-rule="nonzero"/><path fill="#f79436" d="M 709.378906 576.292969 L 658.089844 576.292969 L 658.089844 527.953125 L 709.378906 527.953125 L 709.378906 576.292969 " fill-opacity="1" fill-rule="nonzero"/><path fill="#ed621c" d="M 709.378906 535.308594 L 658.089844 535.308594 L 658.089844 527.953125 L 709.378906 527.953125 L 709.378906 535.308594 " fill-opacity="1" fill-rule="nonzero"/><path fill="#fabd0d" d="M 671.226562 538.269531 L 670.121094 538.269531 L 669.800781 537.730469 L 669.113281 538.269531 L 667.90625 538.269531 L 666.855469 537.394531 L 666.535156 538.269531 L 664.9375 538.269531 L 664.9375 527.953125 L 671.226562 527.953125 L 671.226562 538.269531 " fill-opacity="1" fill-rule="nonzero"/><path fill="#fabd0d" d="M 702.523438 538.269531 L 701.417969 538.269531 L 701.097656 537.730469 L 700.410156 538.269531 L 699.207031 538.269531 L 698.152344 537.394531 L 697.832031 538.269531 L 696.242188 538.269531 L 696.242188 527.953125 L 702.523438 527.953125 L 702.523438 538.269531 " fill-opacity="1" fill-rule="nonzero"/><path fill="#fabd0d" d="M 686.875 576.292969 L 680.585938 576.292969 L 680.585938 570.269531 L 681.792969 570.269531 L 682.238281 570.808594 L 684.015625 570.269531 L 685.222656 570.910156 L 686.875 570.269531 L 686.875 576.292969 " fill-opacity="1" fill-rule="nonzero"/><path fill="#ed621c" d="M 703.308594 558.359375 L 664.152344 558.359375 L 664.152344 547.84375 L 703.308594 547.84375 L 703.308594 558.359375 " fill-opacity="1" fill-rule="nonzero"/><path fill="#f79436" d="M 765.65625 576.292969 L 714.367188 576.292969 L 714.367188 527.953125 L 765.65625 527.953125 L 765.65625 576.292969 " fill-opacity="1" fill-rule="nonzero"/><path fill="#ed621c" d="M 765.65625 535.308594 L 714.367188 535.308594 L 714.367188 527.953125 L 765.65625 527.953125 L 765.65625 535.308594 " fill-opacity="1" fill-rule="nonzero"/><path fill="#fabd0d" d="M 727.503906 538.269531 L 726.398438 538.269531 L 726.078125 537.730469 L 725.394531 538.269531 L 724.1875 538.269531 L 723.136719 537.394531 L 722.816406 538.269531 L 721.214844 538.269531 L 721.214844 527.953125 L 727.503906 527.953125 L 727.503906 538.269531 " fill-opacity="1" fill-rule="nonzero"/><path fill="#fabd0d" d="M 758.804688 538.269531 L 757.695312 538.269531 L 757.378906 537.730469 L 756.691406 538.269531 L 755.484375 538.269531 L 754.433594 537.394531 L 754.113281 538.269531 L 752.519531 538.269531 L 752.519531 527.953125 L 758.804688 527.953125 L 758.804688 538.269531 " fill-opacity="1" fill-rule="nonzero"/><path fill="#fabd0d" d="M 743.152344 576.292969 L 736.867188 576.292969 L 736.867188 570.269531 L 738.070312 570.269531 L 738.515625 570.808594 L 740.296875 570.269531 L 741.503906 570.910156 L 743.152344 570.269531 L 743.152344 576.292969 " fill-opacity="1" fill-rule="nonzero"/><path fill="#ed621c" d="M 759.589844 558.359375 L 720.429688 558.359375 L 720.429688 547.84375 L 759.589844 547.84375 L 759.589844 558.359375 " fill-opacity="1" fill-rule="nonzero"/><path fill="#f79436" d="M 653.097656 527.953125 L 601.808594 527.953125 L 601.808594 479.613281 L 653.097656 479.613281 L 653.097656 527.953125 " fill-opacity="1" fill-rule="nonzero"/><path fill="#ed621c" d="M 653.097656 486.972656 L 601.808594 486.972656 L 601.808594 479.613281 L 653.097656 479.613281 L 653.097656 486.972656 " fill-opacity="1" fill-rule="nonzero"/><path fill="#fabd0d" d="M 614.945312 489.929688 L 613.839844 489.929688 L 613.519531 489.382812 L 612.835938 489.929688 L 611.628906 489.929688 L 610.574219 489.058594 L 610.257812 489.929688 L 608.65625 489.929688 L 608.65625 479.613281 L 614.945312 479.613281 L 614.945312 489.929688 " fill-opacity="1" fill-rule="nonzero"/><path fill="#fabd0d" d="M 646.242188 489.929688 L 645.136719 489.929688 L 644.816406 489.382812 L 644.132812 489.929688 L 642.925781 489.929688 L 641.875 489.058594 L 641.554688 489.929688 L 639.960938 489.929688 L 639.960938 479.613281 L 646.242188 479.613281 L 646.242188 489.929688 " fill-opacity="1" fill-rule="nonzero"/><path fill="#fabd0d" d="M 630.59375 527.953125 L 624.304688 527.953125 L 624.304688 521.929688 L 625.511719 521.929688 L 625.957031 522.46875 L 627.738281 521.929688 L 628.941406 522.570312 L 630.59375 521.929688 L 630.59375 527.953125 " fill-opacity="1" fill-rule="nonzero"/><path fill="#ed621c" d="M 647.03125 510.015625 L 607.871094 510.015625 L 607.871094 499.507812 L 647.03125 499.507812 L 647.03125 510.015625 " fill-opacity="1" fill-rule="nonzero"/><path fill="#f79436" d="M 709.378906 527.953125 L 658.089844 527.953125 L 658.089844 479.613281 L 709.378906 479.613281 L 709.378906 527.953125 " fill-opacity="1" fill-rule="nonzero"/><path fill="#ed621c" d="M 709.378906 486.972656 L 658.089844 486.972656 L 658.089844 479.613281 L 709.378906 479.613281 L 709.378906 486.972656 " fill-opacity="1" fill-rule="nonzero"/><path fill="#fabd0d" d="M 671.226562 489.929688 L 670.121094 489.929688 L 669.800781 489.382812 L 669.113281 489.929688 L 667.90625 489.929688 L 666.855469 489.058594 L 666.535156 489.929688 L 664.9375 489.929688 L 664.9375 479.613281 L 671.226562 479.613281 L 671.226562 489.929688 " fill-opacity="1" fill-rule="nonzero"/><path fill="#fabd0d" d="M 702.523438 489.929688 L 701.417969 489.929688 L 701.097656 489.382812 L 700.410156 489.929688 L 699.207031 489.929688 L 698.152344 489.058594 L 697.832031 489.929688 L 696.242188 489.929688 L 696.242188 479.613281 L 702.523438 479.613281 L 702.523438 489.929688 " fill-opacity="1" fill-rule="nonzero"/><path fill="#fabd0d" d="M 686.875 527.953125 L 680.585938 527.953125 L 680.585938 521.929688 L 681.792969 521.929688 L 682.238281 522.46875 L 684.015625 521.929688 L 685.222656 522.570312 L 686.875 521.929688 L 686.875 527.953125 " fill-opacity="1" fill-rule="nonzero"/><path fill="#ed621c" d="M 703.308594 510.015625 L 664.152344 510.015625 L 664.152344 499.507812 L 703.308594 499.507812 L 703.308594 510.015625 " fill-opacity="1" fill-rule="nonzero"/><path fill="#f79436" d="M 765.65625 527.953125 L 714.367188 527.953125 L 714.367188 479.613281 L 765.65625 479.613281 L 765.65625 527.953125 " fill-opacity="1" fill-rule="nonzero"/><path fill="#ed621c" d="M 765.65625 486.972656 L 714.367188 486.972656 L 714.367188 479.613281 L 765.65625 479.613281 L 765.65625 486.972656 " fill-opacity="1" fill-rule="nonzero"/><path fill="#fabd0d" d="M 727.503906 489.929688 L 726.398438 489.929688 L 726.078125 489.382812 L 725.394531 489.929688 L 724.1875 489.929688 L 723.136719 489.058594 L 722.816406 489.929688 L 721.214844 489.929688 L 721.214844 479.613281 L 727.503906 479.613281 L 727.503906 489.929688 " fill-opacity="1" fill-rule="nonzero"/><path fill="#fabd0d" d="M 758.804688 489.929688 L 757.695312 489.929688 L 757.378906 489.382812 L 756.691406 489.929688 L 755.484375 489.929688 L 754.433594 489.058594 L 754.113281 489.929688 L 752.519531 489.929688 L 752.519531 479.613281 L 758.804688 479.613281 L 758.804688 489.929688 " fill-opacity="1" fill-rule="nonzero"/><path fill="#fabd0d" d="M 743.152344 527.953125 L 736.867188 527.953125 L 736.867188 521.929688 L 738.070312 521.929688 L 738.515625 522.46875 L 740.296875 521.929688 L 741.503906 522.570312 L 743.152344 521.929688 L 743.152344 527.953125 " fill-opacity="1" fill-rule="nonzero"/><path fill="#ed621c" d="M 759.589844 510.015625 L 720.429688 510.015625 L 720.429688 499.507812 L 759.589844 499.507812 L 759.589844 510.015625 " fill-opacity="1" fill-rule="nonzero"/><path fill="#f79436" d="M 504.464844 585.488281 L 463.726562 585.488281 L 463.726562 547.097656 L 504.464844 547.097656 L 504.464844 585.488281 " fill-opacity="1" fill-rule="nonzero"/><path fill="#ed621c" d="M 504.464844 552.941406 L 463.726562 552.941406 L 463.726562 547.097656 L 504.464844 547.097656 L 504.464844 552.941406 " fill-opacity="1" fill-rule="nonzero"/><path fill="#fabd0d" d="M 474.160156 555.289062 L 473.28125 555.289062 L 473.035156 554.855469 L 472.488281 555.289062 L 471.527344 555.289062 L 470.691406 554.59375 L 470.4375 555.289062 L 469.171875 555.289062 L 469.171875 547.097656 L 474.160156 547.097656 L 474.160156 555.289062 " fill-opacity="1" fill-rule="nonzero"/><path fill="#fabd0d" d="M 499.023438 555.289062 L 498.144531 555.289062 L 497.890625 554.855469 L 497.34375 555.289062 L 496.390625 555.289062 L 495.550781 554.59375 L 495.296875 555.289062 L 494.027344 555.289062 L 494.027344 547.097656 L 499.023438 547.097656 L 499.023438 555.289062 " fill-opacity="1" fill-rule="nonzero"/><path fill="#fabd0d" d="M 486.589844 585.488281 L 481.601562 585.488281 L 481.601562 580.703125 L 482.5625 580.703125 L 482.90625 581.128906 L 484.320312 580.703125 L 485.277344 581.210938 L 486.589844 580.703125 L 486.589844 585.488281 " fill-opacity="1" fill-rule="nonzero"/><path fill="#ed621c" d="M 499.648438 571.242188 L 468.542969 571.242188 L 468.542969 562.898438 L 499.648438 562.898438 L 499.648438 571.242188 " fill-opacity="1" fill-rule="nonzero"/><path fill="#f79436" d="M 549.167969 585.488281 L 508.429688 585.488281 L 508.429688 547.097656 L 549.167969 547.097656 L 549.167969 585.488281 " fill-opacity="1" fill-rule="nonzero"/><path fill="#ed621c" d="M 549.167969 552.941406 L 508.429688 552.941406 L 508.429688 547.097656 L 549.167969 547.097656 L 549.167969 552.941406 " fill-opacity="1" fill-rule="nonzero"/><path fill="#fabd0d" d="M 518.867188 555.289062 L 517.980469 555.289062 L 517.734375 554.855469 L 517.191406 555.289062 L 516.230469 555.289062 L 515.390625 554.59375 L 515.136719 555.289062 L 513.871094 555.289062 L 513.871094 547.097656 L 518.867188 547.097656 L 518.867188 555.289062 " fill-opacity="1" fill-rule="nonzero"/><path fill="#fabd0d" d="M 543.722656 555.289062 L 542.84375 555.289062 L 542.589844 554.855469 L 542.046875 555.289062 L 541.09375 555.289062 L 540.253906 554.59375 L 540 555.289062 L 538.734375 555.289062 L 538.734375 547.097656 L 543.722656 547.097656 L 543.722656 555.289062 " fill-opacity="1" fill-rule="nonzero"/><path fill="#fabd0d" d="M 531.292969 585.488281 L 526.296875 585.488281 L 526.296875 580.703125 L 527.253906 580.703125 L 527.609375 581.128906 L 529.019531 580.703125 L 529.980469 581.210938 L 531.292969 580.703125 L 531.292969 585.488281 " fill-opacity="1" fill-rule="nonzero"/><path fill="#ed621c" d="M 544.351562 571.242188 L 513.246094 571.242188 L 513.246094 562.898438 L 544.351562 562.898438 L 544.351562 571.242188 " fill-opacity="1" fill-rule="nonzero"/><path fill="#f79436" d="M 593.867188 585.488281 L 553.128906 585.488281 L 553.128906 547.097656 L 593.867188 547.097656 L 593.867188 585.488281 " fill-opacity="1" fill-rule="nonzero"/><path fill="#ed621c" d="M 593.867188 552.941406 L 553.128906 552.941406 L 553.128906 547.097656 L 593.867188 547.097656 L 593.867188 552.941406 " fill-opacity="1" fill-rule="nonzero"/><path fill="#fabd0d" d="M 563.5625 555.289062 L 562.683594 555.289062 L 562.429688 554.855469 L 561.882812 555.289062 L 560.929688 555.289062 L 560.09375 554.59375 L 559.839844 555.289062 L 558.574219 555.289062 L 558.574219 547.097656 L 563.5625 547.097656 L 563.5625 555.289062 " fill-opacity="1" fill-rule="nonzero"/><path fill="#fabd0d" d="M 588.425781 555.289062 L 587.546875 555.289062 L 587.292969 554.855469 L 586.746094 555.289062 L 585.785156 555.289062 L 584.953125 554.59375 L 584.699219 555.289062 L 583.429688 555.289062 L 583.429688 547.097656 L 588.425781 547.097656 L 588.425781 555.289062 " fill-opacity="1" fill-rule="nonzero"/><path fill="#fabd0d" d="M 575.992188 585.488281 L 570.996094 585.488281 L 570.996094 580.703125 L 571.957031 580.703125 L 572.308594 581.128906 L 573.722656 580.703125 L 574.679688 581.210938 L 575.992188 580.703125 L 575.992188 585.488281 " fill-opacity="1" fill-rule="nonzero"/><path fill="#ed621c" d="M 589.050781 571.242188 L 557.945312 571.242188 L 557.945312 562.898438 L 589.050781 562.898438 L 589.050781 571.242188 " fill-opacity="1" fill-rule="nonzero"/><path fill="#f79436" d="M 504.464844 547.097656 L 463.726562 547.097656 L 463.726562 508.703125 L 504.464844 508.703125 L 504.464844 547.097656 " fill-opacity="1" fill-rule="nonzero"/><path fill="#ed621c" d="M 504.464844 514.546875 L 463.726562 514.546875 L 463.726562 508.703125 L 504.464844 508.703125 L 504.464844 514.546875 " fill-opacity="1" fill-rule="nonzero"/><path fill="#fabd0d" d="M 474.160156 516.898438 L 473.28125 516.898438 L 473.035156 516.464844 L 472.488281 516.898438 L 471.527344 516.898438 L 470.691406 516.199219 L 470.4375 516.898438 L 469.171875 516.898438 L 469.171875 508.703125 L 474.160156 508.703125 L 474.160156 516.898438 " fill-opacity="1" fill-rule="nonzero"/><path fill="#fabd0d" d="M 499.023438 516.898438 L 498.144531 516.898438 L 497.890625 516.464844 L 497.34375 516.898438 L 496.390625 516.898438 L 495.550781 516.199219 L 495.296875 516.898438 L 494.027344 516.898438 L 494.027344 508.703125 L 499.023438 508.703125 L 499.023438 516.898438 " fill-opacity="1" fill-rule="nonzero"/><path fill="#fabd0d" d="M 486.589844 547.097656 L 481.601562 547.097656 L 481.601562 542.308594 L 482.5625 542.308594 L 482.90625 542.742188 L 484.320312 542.308594 L 485.277344 542.820312 L 486.589844 542.308594 L 486.589844 547.097656 " fill-opacity="1" fill-rule="nonzero"/><path fill="#ed621c" d="M 499.648438 532.851562 L 468.542969 532.851562 L 468.542969 524.5 L 499.648438 524.5 L 499.648438 532.851562 " fill-opacity="1" fill-rule="nonzero"/><path fill="#f79436" d="M 549.167969 547.097656 L 508.429688 547.097656 L 508.429688 508.703125 L 549.167969 508.703125 L 549.167969 547.097656 " fill-opacity="1" fill-rule="nonzero"/><path fill="#ed621c" d="M 549.167969 514.546875 L 508.429688 514.546875 L 508.429688 508.703125 L 549.167969 508.703125 L 549.167969 514.546875 " fill-opacity="1" fill-rule="nonzero"/><path fill="#fabd0d" d="M 518.867188 516.898438 L 517.980469 516.898438 L 517.734375 516.464844 L 517.191406 516.898438 L 516.230469 516.898438 L 515.390625 516.199219 L 515.136719 516.898438 L 513.871094 516.898438 L 513.871094 508.703125 L 518.867188 508.703125 L 518.867188 516.898438 " fill-opacity="1" fill-rule="nonzero"/><path fill="#fabd0d" d="M 543.722656 516.898438 L 542.84375 516.898438 L 542.589844 516.464844 L 542.046875 516.898438 L 541.09375 516.898438 L 540.253906 516.199219 L 540 516.898438 L 538.734375 516.898438 L 538.734375 508.703125 L 543.722656 508.703125 L 543.722656 516.898438 " fill-opacity="1" fill-rule="nonzero"/><path fill="#fabd0d" d="M 531.292969 547.097656 L 526.296875 547.097656 L 526.296875 542.308594 L 527.253906 542.308594 L 527.609375 542.742188 L 529.019531 542.308594 L 529.980469 542.820312 L 531.292969 542.308594 L 531.292969 547.097656 " fill-opacity="1" fill-rule="nonzero"/><path fill="#ed621c" d="M 544.351562 532.851562 L 513.246094 532.851562 L 513.246094 524.5 L 544.351562 524.5 L 544.351562 532.851562 " fill-opacity="1" fill-rule="nonzero"/><path fill="#f79436" d="M 593.867188 547.097656 L 553.128906 547.097656 L 553.128906 508.703125 L 593.867188 508.703125 L 593.867188 547.097656 " fill-opacity="1" fill-rule="nonzero"/><path fill="#ed621c" d="M 593.867188 514.546875 L 553.128906 514.546875 L 553.128906 508.703125 L 593.867188 508.703125 L 593.867188 514.546875 " fill-opacity="1" fill-rule="nonzero"/><path fill="#fabd0d" d="M 563.5625 516.898438 L 562.683594 516.898438 L 562.429688 516.464844 L 561.882812 516.898438 L 560.929688 516.898438 L 560.09375 516.199219 L 559.839844 516.898438 L 558.574219 516.898438 L 558.574219 508.703125 L 563.5625 508.703125 L 563.5625 516.898438 " fill-opacity="1" fill-rule="nonzero"/><path fill="#fabd0d" d="M 588.425781 516.898438 L 587.546875 516.898438 L 587.292969 516.464844 L 586.746094 516.898438 L 585.785156 516.898438 L 584.953125 516.199219 L 584.699219 516.898438 L 583.429688 516.898438 L 583.429688 508.703125 L 588.425781 508.703125 L 588.425781 516.898438 " fill-opacity="1" fill-rule="nonzero"/><path fill="#fabd0d" d="M 575.992188 547.097656 L 570.996094 547.097656 L 570.996094 542.308594 L 571.957031 542.308594 L 572.308594 542.742188 L 573.722656 542.308594 L 574.679688 542.820312 L 575.992188 542.308594 L 575.992188 547.097656 " fill-opacity="1" fill-rule="nonzero"/><path fill="#ed621c" d="M 589.050781 532.851562 L 557.945312 532.851562 L 557.945312 524.5 L 589.050781 524.5 L 589.050781 532.851562 " fill-opacity="1" fill-rule="nonzero"/><path fill="#f79436" d="M 595.933594 672.976562 L 549.265625 672.976562 L 549.265625 628.988281 L 595.933594 628.988281 L 595.933594 672.976562 " fill-opacity="1" fill-rule="nonzero"/><path fill="#ed621c" d="M 595.933594 637.105469 L 549.265625 637.105469 L 549.265625 628.988281 L 595.933594 628.988281 L 595.933594 637.105469 " fill-opacity="1" fill-rule="nonzero"/><path fill="#ed621c" d="M 558.8125 669.597656 C 558.8125 670.285156 558.261719 670.839844 557.574219 670.839844 L 554.234375 670.839844 C 553.550781 670.839844 553.003906 670.285156 553.003906 669.597656 L 553.003906 640.882812 C 553.003906 640.203125 553.550781 639.652344 554.234375 639.652344 L 557.574219 639.652344 C 558.261719 639.652344 558.8125 640.203125 558.8125 640.882812 L 558.8125 669.597656 " fill-opacity="1" fill-rule="nonzero"/><path fill="#ed621c" d="M 567.160156 669.597656 C 567.160156 670.285156 566.605469 670.839844 565.929688 670.839844 L 562.582031 670.839844 C 561.898438 670.839844 561.34375 670.285156 561.34375 669.597656 L 561.34375 640.882812 C 561.34375 640.203125 561.898438 639.652344 562.582031 639.652344 L 565.929688 639.652344 C 566.605469 639.652344 567.160156 640.203125 567.160156 640.882812 L 567.160156 669.597656 " fill-opacity="1" fill-rule="nonzero"/><path fill="#ed621c" d="M 575.507812 669.597656 C 575.507812 670.285156 574.960938 670.839844 574.269531 670.839844 L 570.929688 670.839844 C 570.25 670.839844 569.699219 670.285156 569.699219 669.597656 L 569.699219 640.882812 C 569.699219 640.203125 570.25 639.652344 570.929688 639.652344 L 574.269531 639.652344 C 574.960938 639.652344 575.507812 640.203125 575.507812 640.882812 L 575.507812 669.597656 " fill-opacity="1" fill-rule="nonzero"/><path fill="#ed621c" d="M 583.855469 669.597656 C 583.855469 670.285156 583.300781 670.839844 582.621094 670.839844 L 579.277344 670.839844 C 578.597656 670.839844 578.046875 670.285156 578.046875 669.597656 L 578.046875 640.882812 C 578.046875 640.203125 578.597656 639.652344 579.277344 639.652344 L 582.621094 639.652344 C 583.300781 639.652344 583.855469 640.203125 583.855469 640.882812 L 583.855469 669.597656 " fill-opacity="1" fill-rule="nonzero"/><path fill="#ed621c" d="M 592.210938 669.597656 C 592.210938 670.285156 591.65625 670.839844 590.96875 670.839844 L 587.625 670.839844 C 586.945312 670.839844 586.394531 670.285156 586.394531 669.597656 L 586.394531 640.882812 C 586.394531 640.203125 586.945312 639.652344 587.625 639.652344 L 590.96875 639.652344 C 591.65625 639.652344 592.210938 640.203125 592.210938 640.882812 L 592.210938 669.597656 " fill-opacity="1" fill-rule="nonzero"/><path fill="#f79436" d="M 546.527344 672.976562 L 499.863281 672.976562 L 499.863281 628.988281 L 546.527344 628.988281 L 546.527344 672.976562 " fill-opacity="1" fill-rule="nonzero"/><path fill="#ed621c" d="M 546.527344 637.105469 L 499.863281 637.105469 L 499.863281 628.988281 L 546.527344 628.988281 L 546.527344 637.105469 " fill-opacity="1" fill-rule="nonzero"/><path fill="#ed621c" d="M 509.410156 669.597656 C 509.410156 670.285156 508.855469 670.839844 508.167969 670.839844 L 504.832031 670.839844 C 504.144531 670.839844 503.59375 670.285156 503.59375 669.597656 L 503.59375 640.882812 C 503.59375 640.203125 504.144531 639.652344 504.832031 639.652344 L 508.167969 639.652344 C 508.855469 639.652344 509.410156 640.203125 509.410156 640.882812 L 509.410156 669.597656 " fill-opacity="1" fill-rule="nonzero"/><path fill="#ed621c" d="M 517.753906 669.597656 C 517.753906 670.285156 517.203125 670.839844 516.523438 670.839844 L 513.179688 670.839844 C 512.492188 670.839844 511.941406 670.285156 511.941406 669.597656 L 511.941406 640.882812 C 511.941406 640.203125 512.492188 639.652344 513.179688 639.652344 L 516.523438 639.652344 C 517.203125 639.652344 517.753906 640.203125 517.753906 640.882812 L 517.753906 669.597656 " fill-opacity="1" fill-rule="nonzero"/><path fill="#ed621c" d="M 526.101562 669.597656 C 526.101562 670.285156 525.550781 670.839844 524.871094 670.839844 L 521.527344 670.839844 C 520.839844 670.839844 520.292969 670.285156 520.292969 669.597656 L 520.292969 640.882812 C 520.292969 640.203125 520.839844 639.652344 521.527344 639.652344 L 524.871094 639.652344 C 525.550781 639.652344 526.101562 640.203125 526.101562 640.882812 L 526.101562 669.597656 " fill-opacity="1" fill-rule="nonzero"/><path fill="#ed621c" d="M 534.449219 669.597656 C 534.449219 670.285156 533.898438 670.839844 533.21875 670.839844 L 529.875 670.839844 C 529.195312 670.839844 528.632812 670.285156 528.632812 669.597656 L 528.632812 640.882812 C 528.632812 640.203125 529.195312 639.652344 529.875 639.652344 L 533.21875 639.652344 C 533.898438 639.652344 534.449219 640.203125 534.449219 640.882812 L 534.449219 669.597656 " fill-opacity="1" fill-rule="nonzero"/><path fill="#ed621c" d="M 542.796875 669.597656 C 542.796875 670.285156 542.246094 670.839844 541.566406 670.839844 L 538.222656 670.839844 C 537.542969 670.839844 536.988281 670.285156 536.988281 669.597656 L 536.988281 640.882812 C 536.988281 640.203125 537.542969 639.652344 538.222656 639.652344 L 541.566406 639.652344 C 542.246094 639.652344 542.796875 640.203125 542.796875 640.882812 L 542.796875 669.597656 " fill-opacity="1" fill-rule="nonzero"/><path fill="#f79436" d="M 497.125 672.976562 L 450.457031 672.976562 L 450.457031 628.988281 L 497.125 628.988281 L 497.125 672.976562 " fill-opacity="1" fill-rule="nonzero"/><path fill="#ed621c" d="M 497.125 637.105469 L 450.457031 637.105469 L 450.457031 628.988281 L 497.125 628.988281 L 497.125 637.105469 " fill-opacity="1" fill-rule="nonzero"/><path fill="#ed621c" d="M 460.003906 669.597656 C 460.003906 670.285156 459.449219 670.839844 458.769531 670.839844 L 455.425781 670.839844 C 454.742188 670.839844 454.1875 670.285156 454.1875 669.597656 L 454.1875 640.882812 C 454.1875 640.203125 454.742188 639.652344 455.425781 639.652344 L 458.769531 639.652344 C 459.449219 639.652344 460.003906 640.203125 460.003906 640.882812 L 460.003906 669.597656 " fill-opacity="1" fill-rule="nonzero"/><path fill="#ed621c" d="M 468.351562 669.597656 C 468.351562 670.285156 467.796875 670.839844 467.113281 670.839844 L 463.773438 670.839844 C 463.089844 670.839844 462.535156 670.285156 462.535156 669.597656 L 462.535156 640.882812 C 462.535156 640.203125 463.089844 639.652344 463.773438 639.652344 L 467.113281 639.652344 C 467.796875 639.652344 468.351562 640.203125 468.351562 640.882812 L 468.351562 669.597656 " fill-opacity="1" fill-rule="nonzero"/><path fill="#ed621c" d="M 476.699219 669.597656 C 476.699219 670.285156 476.144531 670.839844 475.464844 670.839844 L 472.121094 670.839844 C 471.4375 670.839844 470.882812 670.285156 470.882812 669.597656 L 470.882812 640.882812 C 470.882812 640.203125 471.4375 639.652344 472.121094 639.652344 L 475.464844 639.652344 C 476.144531 639.652344 476.699219 640.203125 476.699219 640.882812 L 476.699219 669.597656 " fill-opacity="1" fill-rule="nonzero"/><path fill="#ed621c" d="M 485.046875 669.597656 C 485.046875 670.285156 484.492188 670.839844 483.8125 670.839844 L 480.46875 670.839844 C 479.789062 670.839844 479.238281 670.285156 479.238281 669.597656 L 479.238281 640.882812 C 479.238281 640.203125 479.789062 639.652344 480.46875 639.652344 L 483.8125 639.652344 C 484.492188 639.652344 485.046875 640.203125 485.046875 640.882812 L 485.046875 669.597656 " fill-opacity="1" fill-rule="nonzero"/><path fill="#ed621c" d="M 493.394531 669.597656 C 493.394531 670.285156 492.839844 670.839844 492.160156 670.839844 L 488.816406 670.839844 C 488.128906 670.839844 487.578125 670.285156 487.578125 669.597656 L 487.578125 640.882812 C 487.578125 640.203125 488.128906 639.652344 488.816406 639.652344 L 492.160156 639.652344 C 492.839844 639.652344 493.394531 640.203125 493.394531 640.882812 L 493.394531 669.597656 " fill-opacity="1" fill-rule="nonzero"/><path fill="#f79436" d="M 595.933594 629.476562 L 549.265625 629.476562 L 549.265625 585.488281 L 595.933594 585.488281 L 595.933594 629.476562 " fill-opacity="1" fill-rule="nonzero"/><path fill="#ed621c" d="M 595.933594 593.605469 L 549.265625 593.605469 L 549.265625 585.488281 L 595.933594 585.488281 L 595.933594 593.605469 " fill-opacity="1" fill-rule="nonzero"/><path fill="#ed621c" d="M 558.8125 626.097656 C 558.8125 626.785156 558.261719 627.335938 557.574219 627.335938 L 554.234375 627.335938 C 553.550781 627.335938 553.003906 626.785156 553.003906 626.097656 L 553.003906 597.382812 C 553.003906 596.703125 553.550781 596.152344 554.234375 596.152344 L 557.574219 596.152344 C 558.261719 596.152344 558.8125 596.703125 558.8125 597.382812 L 558.8125 626.097656 " fill-opacity="1" fill-rule="nonzero"/><path fill="#ed621c" d="M 567.160156 626.097656 C 567.160156 626.785156 566.605469 627.335938 565.929688 627.335938 L 562.582031 627.335938 C 561.898438 627.335938 561.34375 626.785156 561.34375 626.097656 L 561.34375 597.382812 C 561.34375 596.703125 561.898438 596.152344 562.582031 596.152344 L 565.929688 596.152344 C 566.605469 596.152344 567.160156 596.703125 567.160156 597.382812 L 567.160156 626.097656 " fill-opacity="1" fill-rule="nonzero"/><path fill="#ed621c" d="M 575.507812 626.097656 C 575.507812 626.785156 574.960938 627.335938 574.269531 627.335938 L 570.929688 627.335938 C 570.25 627.335938 569.699219 626.785156 569.699219 626.097656 L 569.699219 597.382812 C 569.699219 596.703125 570.25 596.152344 570.929688 596.152344 L 574.269531 596.152344 C 574.960938 596.152344 575.507812 596.703125 575.507812 597.382812 L 575.507812 626.097656 " fill-opacity="1" fill-rule="nonzero"/><path fill="#ed621c" d="M 583.855469 626.097656 C 583.855469 626.785156 583.300781 627.335938 582.621094 627.335938 L 579.277344 627.335938 C 578.597656 627.335938 578.046875 626.785156 578.046875 626.097656 L 578.046875 597.382812 C 578.046875 596.703125 578.597656 596.152344 579.277344 596.152344 L 582.621094 596.152344 C 583.300781 596.152344 583.855469 596.703125 583.855469 597.382812 L 583.855469 626.097656 " fill-opacity="1" fill-rule="nonzero"/><path fill="#ed621c" d="M 592.210938 626.097656 C 592.210938 626.785156 591.65625 627.335938 590.96875 627.335938 L 587.625 627.335938 C 586.945312 627.335938 586.394531 626.785156 586.394531 626.097656 L 586.394531 597.382812 C 586.394531 596.703125 586.945312 596.152344 587.625 596.152344 L 590.96875 596.152344 C 591.65625 596.152344 592.210938 596.703125 592.210938 597.382812 L 592.210938 626.097656 " fill-opacity="1" fill-rule="nonzero"/><path fill="#f79436" d="M 546.527344 629.476562 L 499.863281 629.476562 L 499.863281 585.488281 L 546.527344 585.488281 L 546.527344 629.476562 " fill-opacity="1" fill-rule="nonzero"/><path fill="#ed621c" d="M 546.527344 593.605469 L 499.863281 593.605469 L 499.863281 585.488281 L 546.527344 585.488281 L 546.527344 593.605469 " fill-opacity="1" fill-rule="nonzero"/><path fill="#ed621c" d="M 509.410156 626.097656 C 509.410156 626.785156 508.855469 627.335938 508.167969 627.335938 L 504.832031 627.335938 C 504.144531 627.335938 503.59375 626.785156 503.59375 626.097656 L 503.59375 597.382812 C 503.59375 596.703125 504.144531 596.152344 504.832031 596.152344 L 508.167969 596.152344 C 508.855469 596.152344 509.410156 596.703125 509.410156 597.382812 L 509.410156 626.097656 " fill-opacity="1" fill-rule="nonzero"/><path fill="#ed621c" d="M 517.753906 626.097656 C 517.753906 626.785156 517.203125 627.335938 516.523438 627.335938 L 513.179688 627.335938 C 512.492188 627.335938 511.941406 626.785156 511.941406 626.097656 L 511.941406 597.382812 C 511.941406 596.703125 512.492188 596.152344 513.179688 596.152344 L 516.523438 596.152344 C 517.203125 596.152344 517.753906 596.703125 517.753906 597.382812 L 517.753906 626.097656 " fill-opacity="1" fill-rule="nonzero"/><path fill="#ed621c" d="M 526.101562 626.097656 C 526.101562 626.785156 525.550781 627.335938 524.871094 627.335938 L 521.527344 627.335938 C 520.839844 627.335938 520.292969 626.785156 520.292969 626.097656 L 520.292969 597.382812 C 520.292969 596.703125 520.839844 596.152344 521.527344 596.152344 L 524.871094 596.152344 C 525.550781 596.152344 526.101562 596.703125 526.101562 597.382812 L 526.101562 626.097656 " fill-opacity="1" fill-rule="nonzero"/><path fill="#ed621c" d="M 534.449219 626.097656 C 534.449219 626.785156 533.898438 627.335938 533.21875 627.335938 L 529.875 627.335938 C 529.195312 627.335938 528.632812 626.785156 528.632812 626.097656 L 528.632812 597.382812 C 528.632812 596.703125 529.195312 596.152344 529.875 596.152344 L 533.21875 596.152344 C 533.898438 596.152344 534.449219 596.703125 534.449219 597.382812 L 534.449219 626.097656 " fill-opacity="1" fill-rule="nonzero"/><path fill="#ed621c" d="M 542.796875 626.097656 C 542.796875 626.785156 542.246094 627.335938 541.566406 627.335938 L 538.222656 627.335938 C 537.542969 627.335938 536.988281 626.785156 536.988281 626.097656 L 536.988281 597.382812 C 536.988281 596.703125 537.542969 596.152344 538.222656 596.152344 L 541.566406 596.152344 C 542.246094 596.152344 542.796875 596.703125 542.796875 597.382812 L 542.796875 626.097656 " fill-opacity="1" fill-rule="nonzero"/><path fill="#f79436" d="M 497.125 629.476562 L 450.457031 629.476562 L 450.457031 585.488281 L 497.125 585.488281 L 497.125 629.476562 " fill-opacity="1" fill-rule="nonzero"/><path fill="#ed621c" d="M 497.125 593.605469 L 450.457031 593.605469 L 450.457031 585.488281 L 497.125 585.488281 L 497.125 593.605469 " fill-opacity="1" fill-rule="nonzero"/><path fill="#ed621c" d="M 460.003906 626.097656 C 460.003906 626.785156 459.449219 627.335938 458.769531 627.335938 L 455.425781 627.335938 C 454.742188 627.335938 454.1875 626.785156 454.1875 626.097656 L 454.1875 597.382812 C 454.1875 596.703125 454.742188 596.152344 455.425781 596.152344 L 458.769531 596.152344 C 459.449219 596.152344 460.003906 596.703125 460.003906 597.382812 L 460.003906 626.097656 " fill-opacity="1" fill-rule="nonzero"/><path fill="#ed621c" d="M 468.351562 626.097656 C 468.351562 626.785156 467.796875 627.335938 467.113281 627.335938 L 463.773438 627.335938 C 463.089844 627.335938 462.535156 626.785156 462.535156 626.097656 L 462.535156 597.382812 C 462.535156 596.703125 463.089844 596.152344 463.773438 596.152344 L 467.113281 596.152344 C 467.796875 596.152344 468.351562 596.703125 468.351562 597.382812 L 468.351562 626.097656 " fill-opacity="1" fill-rule="nonzero"/><path fill="#ed621c" d="M 476.699219 626.097656 C 476.699219 626.785156 476.144531 627.335938 475.464844 627.335938 L 472.121094 627.335938 C 471.4375 627.335938 470.882812 626.785156 470.882812 626.097656 L 470.882812 597.382812 C 470.882812 596.703125 471.4375 596.152344 472.121094 596.152344 L 475.464844 596.152344 C 476.144531 596.152344 476.699219 596.703125 476.699219 597.382812 L 476.699219 626.097656 " fill-opacity="1" fill-rule="nonzero"/><path fill="#ed621c" d="M 485.046875 626.097656 C 485.046875 626.785156 484.492188 627.335938 483.8125 627.335938 L 480.46875 627.335938 C 479.789062 627.335938 479.238281 626.785156 479.238281 626.097656 L 479.238281 597.382812 C 479.238281 596.703125 479.789062 596.152344 480.46875 596.152344 L 483.8125 596.152344 C 484.492188 596.152344 485.046875 596.703125 485.046875 597.382812 L 485.046875 626.097656 " fill-opacity="1" fill-rule="nonzero"/><path fill="#ed621c" d="M 493.394531 626.097656 C 493.394531 626.785156 492.839844 627.335938 492.160156 627.335938 L 488.816406 627.335938 C 488.128906 627.335938 487.578125 626.785156 487.578125 626.097656 L 487.578125 597.382812 C 487.578125 596.703125 488.128906 596.152344 488.816406 596.152344 L 492.160156 596.152344 C 492.839844 596.152344 493.394531 596.703125 493.394531 597.382812 L 493.394531 626.097656 " fill-opacity="1" fill-rule="nonzero"/><path fill="#f79436" d="M 385.25 672.976562 L 341.769531 672.976562 L 341.769531 631.996094 L 385.25 631.996094 L 385.25 672.976562 " fill-opacity="1" fill-rule="nonzero"/><path fill="#ed621c" d="M 385.25 638.226562 L 341.769531 638.226562 L 341.769531 631.996094 L 385.25 631.996094 L 385.25 638.226562 " fill-opacity="1" fill-rule="nonzero"/><path fill="#fabd0d" d="M 366.171875 644.976562 L 365.238281 644.976562 L 364.964844 644.289062 L 364.386719 644.976562 L 363.359375 644.976562 L 362.46875 643.875 L 362.195312 644.976562 L 360.839844 644.976562 L 360.839844 631.996094 L 366.171875 631.996094 L 366.171875 644.976562 " fill-opacity="1" fill-rule="nonzero"/><path fill="#fabd0d" d="M 366.171875 672.976562 L 360.839844 672.976562 L 360.839844 664.09375 L 361.867188 664.09375 L 362.242188 664.886719 L 363.746094 664.09375 L 364.773438 665.039062 L 366.171875 664.09375 L 366.171875 672.976562 " fill-opacity="1" fill-rule="nonzero"/><path fill="#f79436" d="M 438.964844 672.976562 L 395.484375 672.976562 L 395.484375 631.996094 L 438.964844 631.996094 L 438.964844 672.976562 " fill-opacity="1" fill-rule="nonzero"/><path fill="#ed621c" d="M 438.964844 638.226562 L 395.484375 638.226562 L 395.484375 631.996094 L 438.964844 631.996094 L 438.964844 638.226562 " fill-opacity="1" fill-rule="nonzero"/><path fill="#fabd0d" d="M 419.890625 644.976562 L 418.953125 644.976562 L 418.679688 644.289062 L 418.101562 644.976562 L 417.074219 644.976562 L 416.183594 643.875 L 415.914062 644.976562 L 414.5625 644.976562 L 414.5625 631.996094 L 419.890625 631.996094 L 419.890625 644.976562 " fill-opacity="1" fill-rule="nonzero"/><path fill="#fabd0d" d="M 419.890625 672.976562 L 414.5625 672.976562 L 414.5625 664.09375 L 415.582031 664.09375 L 415.957031 664.886719 L 417.46875 664.09375 L 418.488281 665.039062 L 419.890625 664.09375 L 419.890625 672.976562 " fill-opacity="1" fill-rule="nonzero"/><path fill="#f79436" d="M 385.25 631.914062 L 341.769531 631.914062 L 341.769531 590.925781 L 385.25 590.925781 L 385.25 631.914062 " fill-opacity="1" fill-rule="nonzero"/><path fill="#ed621c" d="M 385.25 597.164062 L 341.769531 597.164062 L 341.769531 590.925781 L 385.25 590.925781 L 385.25 597.164062 " fill-opacity="1" fill-rule="nonzero"/><path fill="#fabd0d" d="M 366.171875 603.914062 L 365.238281 603.914062 L 364.964844 603.226562 L 364.386719 603.914062 L 363.359375 603.914062 L 362.46875 602.8125 L 362.195312 603.914062 L 360.839844 603.914062 L 360.839844 590.925781 L 366.171875 590.925781 L 366.171875 603.914062 " fill-opacity="1" fill-rule="nonzero"/><path fill="#fabd0d" d="M 366.171875 631.914062 L 360.839844 631.914062 L 360.839844 623.03125 L 361.867188 623.03125 L 362.242188 623.824219 L 363.746094 623.03125 L 364.773438 623.980469 L 366.171875 623.03125 L 366.171875 631.914062 " fill-opacity="1" fill-rule="nonzero"/><path fill="#f79436" d="M 438.964844 631.914062 L 395.484375 631.914062 L 395.484375 590.925781 L 438.964844 590.925781 L 438.964844 631.914062 " fill-opacity="1" fill-rule="nonzero"/><path fill="#ed621c" d="M 438.964844 597.164062 L 395.484375 597.164062 L 395.484375 590.925781 L 438.964844 590.925781 L 438.964844 597.164062 " fill-opacity="1" fill-rule="nonzero"/><path fill="#fabd0d" d="M 419.890625 603.914062 L 418.953125 603.914062 L 418.679688 603.226562 L 418.101562 603.914062 L 417.074219 603.914062 L 416.183594 602.8125 L 415.914062 603.914062 L 414.5625 603.914062 L 414.5625 590.925781 L 419.890625 590.925781 L 419.890625 603.914062 " fill-opacity="1" fill-rule="nonzero"/><path fill="#fabd0d" d="M 419.890625 631.914062 L 414.5625 631.914062 L 414.5625 623.03125 L 415.582031 623.03125 L 415.957031 623.824219 L 417.46875 623.03125 L 418.488281 623.980469 L 419.890625 623.03125 L 419.890625 631.914062 " fill-opacity="1" fill-rule="nonzero"/><path fill="#f79436" d="M 385.25 590.851562 L 341.769531 590.851562 L 341.769531 549.863281 L 385.25 549.863281 L 385.25 590.851562 " fill-opacity="1" fill-rule="nonzero"/><path fill="#ed621c" d="M 385.25 556.101562 L 341.769531 556.101562 L 341.769531 549.863281 L 385.25 549.863281 L 385.25 556.101562 " fill-opacity="1" fill-rule="nonzero"/><path fill="#fabd0d" d="M 366.171875 562.851562 L 365.238281 562.851562 L 364.964844 562.164062 L 364.386719 562.851562 L 363.359375 562.851562 L 362.46875 561.753906 L 362.195312 562.851562 L 360.839844 562.851562 L 360.839844 549.863281 L 366.171875 549.863281 L 366.171875 562.851562 " fill-opacity="1" fill-rule="nonzero"/><path fill="#fabd0d" d="M 366.171875 590.851562 L 360.839844 590.851562 L 360.839844 581.96875 L 361.867188 581.96875 L 362.242188 582.761719 L 363.746094 581.96875 L 364.773438 582.917969 L 366.171875 581.96875 L 366.171875 590.851562 " fill-opacity="1" fill-rule="nonzero"/><path fill="#f79436" d="M 438.964844 590.851562 L 395.484375 590.851562 L 395.484375 549.863281 L 438.964844 549.863281 L 438.964844 590.851562 " fill-opacity="1" fill-rule="nonzero"/><path fill="#ed621c" d="M 438.964844 556.101562 L 395.484375 556.101562 L 395.484375 549.863281 L 438.964844 549.863281 L 438.964844 556.101562 " fill-opacity="1" fill-rule="nonzero"/><path fill="#fabd0d" d="M 419.890625 562.851562 L 418.953125 562.851562 L 418.679688 562.164062 L 418.101562 562.851562 L 417.074219 562.851562 L 416.183594 561.753906 L 415.914062 562.851562 L 414.5625 562.851562 L 414.5625 549.863281 L 419.890625 549.863281 L 419.890625 562.851562 " fill-opacity="1" fill-rule="nonzero"/><path fill="#fabd0d" d="M 419.890625 590.851562 L 414.5625 590.851562 L 414.5625 581.96875 L 415.582031 581.96875 L 415.957031 582.761719 L 417.46875 581.96875 L 418.488281 582.917969 L 419.890625 581.96875 L 419.890625 590.851562 " fill-opacity="1" fill-rule="nonzero"/><path fill="#f79436" d="M 419.285156 549.863281 L 384.878906 549.863281 L 384.878906 517.4375 L 419.285156 517.4375 L 419.285156 549.863281 " fill-opacity="1" fill-rule="nonzero"/><path fill="#ed621c" d="M 419.285156 522.375 L 384.878906 522.375 L 384.878906 517.4375 L 419.285156 517.4375 L 419.285156 522.375 " fill-opacity="1" fill-rule="nonzero"/><path fill="#fabd0d" d="M 393.691406 524.355469 L 392.953125 524.355469 L 392.730469 523.988281 L 392.273438 524.355469 L 391.464844 524.355469 L 390.761719 523.769531 L 390.546875 524.355469 L 389.472656 524.355469 L 389.472656 517.4375 L 393.691406 517.4375 L 393.691406 524.355469 " fill-opacity="1" fill-rule="nonzero"/><path fill="#fabd0d" d="M 414.691406 524.355469 L 413.949219 524.355469 L 413.730469 523.988281 L 413.269531 524.355469 L 412.464844 524.355469 L 411.757812 523.769531 L 411.539062 524.355469 L 410.472656 524.355469 L 410.472656 517.4375 L 414.691406 517.4375 L 414.691406 524.355469 " fill-opacity="1" fill-rule="nonzero"/><path fill="#fabd0d" d="M 404.191406 549.863281 L 399.972656 549.863281 L 399.972656 545.824219 L 400.78125 545.824219 L 401.078125 546.1875 L 402.273438 545.824219 L 403.078125 546.253906 L 404.191406 545.824219 L 404.191406 549.863281 " fill-opacity="1" fill-rule="nonzero"/><path fill="#f79436" d="M 381.867188 549.863281 L 347.449219 549.863281 L 347.449219 517.4375 L 381.867188 517.4375 L 381.867188 549.863281 " fill-opacity="1" fill-rule="nonzero"/><path fill="#ed621c" d="M 381.867188 522.375 L 347.449219 522.375 L 347.449219 517.4375 L 381.867188 517.4375 L 381.867188 522.375 " fill-opacity="1" fill-rule="nonzero"/><path fill="#fabd0d" d="M 356.265625 524.355469 L 355.523438 524.355469 L 355.3125 523.988281 L 354.847656 524.355469 L 354.046875 524.355469 L 353.332031 523.769531 L 353.121094 524.355469 L 352.046875 524.355469 L 352.046875 517.4375 L 356.265625 517.4375 L 356.265625 524.355469 " fill-opacity="1" fill-rule="nonzero"/><path fill="#fabd0d" d="M 377.261719 524.355469 L 376.523438 524.355469 L 376.308594 523.988281 L 375.851562 524.355469 L 375.042969 524.355469 L 374.332031 523.769531 L 374.117188 524.355469 L 373.046875 524.355469 L 373.046875 517.4375 L 377.261719 517.4375 L 377.261719 524.355469 " fill-opacity="1" fill-rule="nonzero"/><path fill="#fabd0d" d="M 366.769531 549.863281 L 362.546875 549.863281 L 362.546875 545.824219 L 363.359375 545.824219 L 363.652344 546.1875 L 364.84375 545.824219 L 365.65625 546.253906 L 366.769531 545.824219 L 366.769531 549.863281 " fill-opacity="1" fill-rule="nonzero"/><path fill="#ed621c" d="M 377.796875 537.828125 L 351.523438 537.828125 L 351.523438 530.777344 L 377.796875 530.777344 L 377.796875 537.828125 " fill-opacity="1" fill-rule="nonzero"/><path fill="#f79436" d="M 908.628906 513.734375 L 864.121094 513.734375 L 864.121094 499.507812 L 908.628906 499.507812 L 908.628906 513.734375 " fill-opacity="1" fill-rule="nonzero"/><path fill="#f79436" d="M 970.835938 513.734375 L 926.328125 513.734375 L 926.328125 499.507812 L 970.835938 499.507812 L 970.835938 513.734375 " fill-opacity="1" fill-rule="nonzero"/><path fill="#f79436" d="M 1033.039062 513.734375 L 988.539062 513.734375 L 988.539062 499.507812 L 1033.039062 499.507812 L 1033.039062 513.734375 " fill-opacity="1" fill-rule="nonzero"/><path fill="#f79436" d="M 1095.25 513.734375 L 1050.742188 513.734375 L 1050.742188 499.507812 L 1095.25 499.507812 L 1095.25 513.734375 " fill-opacity="1" fill-rule="nonzero"/><path fill="#f79436" d="M 1157.457031 513.734375 L 1112.949219 513.734375 L 1112.949219 499.507812 L 1157.457031 499.507812 L 1157.457031 513.734375 " fill-opacity="1" fill-rule="nonzero"/><g clip-path="url(#d079ad40b4)"><path fill="#ed621c" d="M 1013.308594 296.074219 L 926.328125 238.925781 L 926.328125 117.804688 L 1013.308594 117.804688 L 1013.308594 296.074219 " fill-opacity="1" fill-rule="nonzero"/></g><g clip-path="url(#c82aaaa8fd)"><path fill="#f79436" d="M 1048.894531 296.074219 L 1013.308594 296.074219 L 1013.308594 117.804688 L 1048.894531 117.804688 L 1048.894531 296.074219 " fill-opacity="1" fill-rule="nonzero"/></g><g clip-path="url(#5ea41f687a)"><path fill="#ed621c" d="M 842.109375 296.074219 L 755.132812 238.925781 L 755.132812 117.804688 L 842.109375 117.804688 L 842.109375 296.074219 " fill-opacity="1" fill-rule="nonzero"/></g><g clip-path="url(#52dc74a40b)"><path fill="#f79436" d="M 877.699219 296.074219 L 842.109375 296.074219 L 842.109375 117.804688 L 877.699219 117.804688 L 877.699219 296.074219 " fill-opacity="1" fill-rule="nonzero"/></g><path fill="#fabd0d" d="M 908.628906 563.339844 L 864.121094 563.339844 L 864.121094 513.734375 L 908.628906 513.734375 L 908.628906 563.339844 " fill-opacity="1" fill-rule="nonzero"/><path fill="#fabd0d" d="M 970.835938 563.339844 L 926.328125 563.339844 L 926.328125 513.734375 L 970.835938 513.734375 L 970.835938 563.339844 " fill-opacity="1" fill-rule="nonzero"/><path fill="#fabd0d" d="M 1033.039062 563.339844 L 988.539062 563.339844 L 988.539062 513.734375 L 1033.039062 513.734375 L 1033.039062 563.339844 " fill-opacity="1" fill-rule="nonzero"/><path fill="#fabd0d" d="M 1095.25 563.339844 L 1050.742188 563.339844 L 1050.742188 513.734375 L 1095.25 513.734375 L 1095.25 563.339844 " fill-opacity="1" fill-rule="nonzero"/><path fill="#fabd0d" d="M 1157.457031 563.339844 L 1112.949219 563.339844 L 1112.949219 513.734375 L 1157.457031 513.734375 L 1157.457031 563.339844 " fill-opacity="1" fill-rule="nonzero"/><path fill="#ed621c" d="M 667.316406 364.3125 L 431.019531 364.3125 L 431.019531 327.292969 L 667.316406 327.292969 L 667.316406 364.3125 " fill-opacity="1" fill-rule="nonzero"/></svg>